{
.appVersion = "1286";
copyright = MIT;
date = "2020-03-07 17:10:05 +0000";
designer = "Gelehrte Crest";
designerURL = "http://gelehrte.com";
familyName = Eorzea;
fontMaster = (
{
ascender = 800;
capHeight = 700;
descender = -200;
id = "4CCF3E11-34F0-4D6E-A638-D119D8A2B44F";
xHeight = 500;
}
);
glyphs = (
{
glyphname = A;
lastChange = "2020-01-09 16:16:22 +0000";
layers = (
{
layerId = "4CCF3E11-34F0-4D6E-A638-D119D8A2B44F";
paths = (
{
closed = 1;
nodes = (
"207 346 LINE",
"207 346 OFFCURVE",
"415 481 OFFCURVE",
"488 479 CURVE",
"587 478 OFFCURVE",
"637 340 OFFCURVE",
"634 267 CURVE",
"629 145 OFFCURVE",
"493 39 OFFCURVE",
"394 37 CURVE",
"316 37 OFFCURVE",
"253 123 OFFCURVE",
"211 123 CURVE",
"189 123 OFFCURVE",
"179 180 OFFCURVE",
"179 180 CURVE",
"212 261 LINE",
"262 219 OFFCURVE",
"342 120 OFFCURVE",
"416 123 CURVE",
"473 126 OFFCURVE",
"497 201 OFFCURVE",
"497 251 CURVE",
"497 292 OFFCURVE",
"451 372 OFFCURVE",
"403 372 CURVE",
"354 372 OFFCURVE",
"197 259 OFFCURVE",
"197 259 CURVE",
"207 346 LINE"
);
},
{
closed = 1;
nodes = (
"234 563 LINE",
"234 563 OFFCURVE",
"442 729 OFFCURVE",
"531 730 CURVE",
"653 731 OFFCURVE",
"666 670 OFFCURVE",
"666 641 CURVE",
"666 611 OFFCURVE",
"624 563 OFFCURVE",
"591 563 CURVE",
"559 562 OFFCURVE",
"516 614 OFFCURVE",
"472 613 CURVE",
"377 612 OFFCURVE",
"227 492 OFFCURVE",
"227 492 CURVE",
"234 563 LINE"
);
},
{
closed = 1;
nodes = (
"269 715 LINE",
"275 715 OFFCURVE",
"276 695 OFFCURVE",
"275 688 CURVE",
"270 675 OFFCURVE",
"256 657 OFFCURVE",
"254 639 CURVE",
"245 548 OFFCURVE",
"211 124 OFFCURVE",
"211 124 CURVE",
"211 124 OFFCURVE",
"168 124 OFFCURVE",
"154 113 CURVE",
"130 93 OFFCURVE",
"61 1 OFFCURVE",
"61 1 CURVE",
"61 1 OFFCURVE",
"108 290 OFFCURVE",
"120 399 CURVE",
"129 481 OFFCURVE",
"122 550 OFFCURVE",
"126 607 CURVE",
"129 646 OFFCURVE",
"188 715 OFFCURVE",
"215 716 CURVE",
"240 716 OFFCURVE",
"258 715 OFFCURVE",
"269 715 CURVE"
);
}
);
width = 727;
}
);
unicode = 0041;
},
{
glyphname = B;
lastChange = "2020-01-09 16:17:27 +0000";
layers = (
{
layerId = "4CCF3E11-34F0-4D6E-A638-D119D8A2B44F";
paths = (
{
closed = 1;
nodes = (
"45 466 OFFCURVE",
"359 684 OFFCURVE",
"497 686 CURVE SMOOTH",
"594 687 OFFCURVE",
"682 629 OFFCURVE",
"678 540 CURVE SMOOTH",
"671 406 OFFCURVE",
"631 365 OFFCURVE",
"568 306 CURVE SMOOTH",
"493 236 OFFCURVE",
"437 205 OFFCURVE",
"409 204 CURVE SMOOTH",
"372 204 OFFCURVE",
"304 205 OFFCURVE",
"304 205 CURVE",
"304 522 LINE",
"304 522 OFFCURVE",
"174 420 OFFCURVE",
"170 297 CURVE SMOOTH",
"167 228 OFFCURVE",
"174 84 OFFCURVE",
"289 85 CURVE SMOOTH",
"405 86 OFFCURVE",
"590 219 OFFCURVE",
"590 219 CURVE",
"590 219 OFFCURVE",
"402 0 OFFCURVE",
"197 0 CURVE SMOOTH",
"74 1 OFFCURVE",
"27 72 OFFCURVE",
"30 149 CURVE SMOOTH"
);
},
{
closed = 1;
nodes = (
"410 273 OFFCURVE",
"549 288 OFFCURVE",
"552 504 CURVE SMOOTH",
"553 550 OFFCURVE",
"534 618 OFFCURVE",
"488 618 CURVE SMOOTH",
"457 617 OFFCURVE",
"418 581 OFFCURVE",
"418 581 CURVE",
"410 273 LINE"
);
}
);
width = 708;
}
);
unicode = 0042;
},
{
glyphname = C;
lastChange = "2020-01-09 16:19:11 +0000";
layers = (
{
layerId = "4CCF3E11-34F0-4D6E-A638-D119D8A2B44F";
paths = (
{
closed = 1;
nodes = (
"35 554 OFFCURVE",
"489 723 OFFCURVE",
"489 723 CURVE",
"489 723 LINE",
"551 723 LINE",
"551 64 LINE",
"448 1 LINE",
"448 1 OFFCURVE",
"30 30 OFFCURVE",
"30 353 CURVE SMOOTH"
);
},
{
closed = 1;
nodes = (
"179 143 OFFCURVE",
"448 115 OFFCURVE",
"448 115 CURVE",
"448 642 LINE",
"418 629 OFFCURVE",
"179 519 OFFCURVE",
"179 351 CURVE SMOOTH"
);
},
{
closed = 1;
nodes = (
"451 643 LINE",
"451 643 OFFCURVE",
"450 643 OFFCURVE",
"448 642 CURVE",
"448 643 LINE"
);
}
);
width = 581;
}
);
unicode = 0043;
},
{
glyphname = D;
lastChange = "2020-01-09 16:21:13 +0000";
layers = (
{
layerId = "4CCF3E11-34F0-4D6E-A638-D119D8A2B44F";
paths = (
{
closed = 1;
nodes = (
"28 405 OFFCURVE",
"436 715 OFFCURVE",
"569 713 CURVE SMOOTH",
"643 713 OFFCURVE",
"728 607 OFFCURVE",
"728 542 CURVE SMOOTH",
"728 493 OFFCURVE",
"698 426 OFFCURVE",
"658 426 CURVE",
"602 430 OFFCURVE",
"610 491 OFFCURVE",
"610 529 CURVE SMOOTH",
"610 580 OFFCURVE",
"607 644 OFFCURVE",
"560 644 CURVE SMOOTH",
"391 649 OFFCURVE",
"601 2 OFFCURVE",
"287 2 CURVE SMOOTH",
"189 2 OFFCURVE",
"30 39 OFFCURVE",
"30 173 CURVE SMOOTH"
);
},
{
closed = 1;
nodes = (
"139 136 OFFCURVE",
"213 99 OFFCURVE",
"273 99 CURVE SMOOTH",
"426 102 OFFCURVE",
"408 576 OFFCURVE",
"408 576 CURVE",
"408 576 OFFCURVE",
"136 371 OFFCURVE",
"139 218 CURVE SMOOTH"
);
}
);
width = 758;
}
);
unicode = 0044;
},
{
glyphname = E;
lastChange = "2020-01-09 16:31:14 +0000";
layers = (
{
layerId = "4CCF3E11-34F0-4D6E-A638-D119D8A2B44F";
paths = (
{
closed = 1;
nodes = (
"186 787 LINE",
"186 787 OFFCURVE",
"149 734 OFFCURVE",
"149 702 CURVE",
"149 666 OFFCURVE",
"169 646 OFFCURVE",
"194 645 CURVE",
"241 644 OFFCURVE",
"352 696 OFFCURVE",
"434 696 CURVE",
"684 696 OFFCURVE",
"729 475 OFFCURVE",
"724 361 CURVE",
"724 114 OFFCURVE",
"542 2 OFFCURVE",
"374 1 CURVE",
"171 1 OFFCURVE",
"97 81 OFFCURVE",
"97 81 CURVE",
"180 172 LINE",
"180 172 OFFCURVE",
"303 70 OFFCURVE",
"397 70 CURVE",
"562 74 OFFCURVE",
"575 255 OFFCURVE",
"574 348 CURVE",
"574 441 OFFCURVE",
"544 628 OFFCURVE",
"393 628 CURVE",
"315 633 OFFCURVE",
"207 541 OFFCURVE",
"147 541 CURVE",
"96 542 OFFCURVE",
"30 572 OFFCURVE",
"30 638 CURVE",
"31 701 OFFCURVE",
"186 787 OFFCURVE",
"186 787 CURVE"
);
},
{
closed = 1;
nodes = (
"205 406 LINE",
"602 406 LINE",
"600 324 LINE",
"132 324 LINE",
"205 406 LINE"
);
}
);
width = 754;
}
);
unicode = 0045;
},
{
glyphname = F;
lastChange = "2020-01-09 16:32:57 +0000";
layers = (
{
layerId = "4CCF3E11-34F0-4D6E-A638-D119D8A2B44F";
paths = (
{
closed = 1;
nodes = (
"303 778 LINE",
"482 778 OFFCURVE",
"601 697 OFFCURVE",
"603 644 CURVE",
"603 619 OFFCURVE",
"535 537 OFFCURVE",
"515 536 CURVE",
"465 536 OFFCURVE",
"474 692 OFFCURVE",
"307 692 CURVE",
"252 691 OFFCURVE",
"147 667 OFFCURVE",
"147 612 CURVE",
"147 511 OFFCURVE",
"147 87 OFFCURVE",
"149 87 CURVE",
"55 1 LINE",
"30 25 LINE",
"30 25 OFFCURVE",
"30 453 OFFCURVE",
"30 587 CURVE",
"30 686 OFFCURVE",
"115 781 OFFCURVE",
"303 778 CURVE"
);
}
);
width = 633;
}
);
unicode = 0046;
},
{
glyphname = G;
lastChange = "2020-01-09 16:38:49 +0000";
layers = (
{
layerId = "4CCF3E11-34F0-4D6E-A638-D119D8A2B44F";
paths = (
{
closed = 1;
nodes = (
"30 340 OFFCURVE",
"32 372 OFFCURVE",
"31 431 CURVE SMOOTH",
"29 575 OFFCURVE",
"461 761 OFFCURVE",
"461 761 CURVE",
"557 762 LINE",
"557 762 LINE",
"555 72 LINE",
"434 1 LINE",
"434 1 OFFCURVE",
"409 1 OFFCURVE",
"386 1 CURVE SMOOTH",
"368 1 OFFCURVE",
"30 95 OFFCURVE",
"30 273 CURVE SMOOTH"
);
},
{
closed = 1;
nodes = (
"165 380 OFFCURVE",
"166 340 OFFCURVE",
"167 305 CURVE SMOOTH",
"169 228 OFFCURVE",
"345 121 OFFCURVE",
"384 120 CURVE SMOOTH",
"413 119 OFFCURVE",
"434 119 OFFCURVE",
"434 119 CURVE",
"431 660 LINE",
"431 660 OFFCURVE",
"165 516 OFFCURVE",
"165 417 CURVE SMOOTH"
);
},
{
closed = 1;
nodes = (
"326 439 LINE",
"728 438 LINE",
"673 338 LINE",
"500 337 LINE",
"497 355 LINE",
"270 356 LINE"
);
}
);
width = 758;
}
);
unicode = 0047;
},
{
glyphname = H;
lastChange = "2020-03-04 22:41:05 +0000";
layers = (
{
layerId = "4CCF3E11-34F0-4D6E-A638-D119D8A2B44F";
paths = (
{
closed = 1;
nodes = (
"167 785 LINE",
"216 783 LINE",
"235 763 LINE",
"234 80 LINE",
"123 19 LINE",
"124 637 LINE",
"30 679 LINE",
"167 785 LINE"
);
},
{
closed = 1;
nodes = (
"439 747 LINE",
"436 764 OFFCURVE",
"536 780 OFFCURVE",
"568 780 CURVE",
"598 779 OFFCURVE",
"625 735 OFFCURVE",
"626 700 CURVE",
"626 661 OFFCURVE",
"531 568 OFFCURVE",
"531 568 CURVE",
"531 568 OFFCURVE",
"702 558 OFFCURVE",
"702 394 CURVE",
"702 147 OFFCURVE",
"380 1 OFFCURVE",
"380 1 CURVE",
"380 1 OFFCURVE",
"558 199 OFFCURVE",
"552 358 CURVE",
"549 426 OFFCURVE",
"456 491 OFFCURVE",
"397 494 CURVE",
"337 497 OFFCURVE",
"163 361 OFFCURVE",
"163 361 CURVE",
"163 361 OFFCURVE",
"269 497 OFFCURVE",
"330 538 CURVE",
"382 573 OFFCURVE",
"482 641 OFFCURVE",
"480 695 CURVE",
"479 721 OFFCURVE",
"444 727 OFFCURVE",
"439 747 CURVE"
);
}
);
width = 732;
}
);
unicode = 0048;
},
{
glyphname = I;
lastChange = "2020-03-04 22:42:20 +0000";
layers = (
{
layerId = "4CCF3E11-34F0-4D6E-A638-D119D8A2B44F";
paths = (
{
closed = 1;
nodes = (
"56 628 LINE",
"197 745 LINE",
"273 745 LINE",
"273 527 LINE",
"161 1 LINE",
"30 1 LINE",
"144 597 LINE",
"56 597 LINE",
"56 628 LINE"
);
}
);
width = 303;
}
);
unicode = 0049;
},
{
glyphname = J;
lastChange = "2020-03-04 22:47:40 +0000";
layers = (
{
layerId = "4CCF3E11-34F0-4D6E-A638-D119D8A2B44F";
paths = (
{
closed = 1;
nodes = (
"45 599 LINE",
"45 633 LINE",
"182 732 LINE",
"217 732 LINE",
"217 654 LINE",
"200 653 LINE",
"200 653 OFFCURVE",
"161 375 OFFCURVE",
"162 284 CURVE",
"162 202 OFFCURVE",
"165 94 OFFCURVE",
"326 95 CURVE",
"390 95 OFFCURVE",
"554 186 OFFCURVE",
"554 186 CURVE",
"554 186 OFFCURVE",
"482 3 OFFCURVE",
"277 3 CURVE",
"78 5 OFFCURVE",
"30 82 OFFCURVE",
"30 184 CURVE",
"27 286 OFFCURVE",
"105 599 OFFCURVE",
"105 600 CURVE",
"45 599 LINE"
);
},
{
closed = 1;
nodes = (
"143 412 LINE",
"559 412 LINE",
"514 337 LINE",
"141 337 LINE",
"143 414 LINE"
);
}
);
width = 589;
}
);
unicode = 004A;
},
{
glyphname = K;
lastChange = "2020-03-04 22:49:46 +0000";
layers = (
{
layerId = "4CCF3E11-34F0-4D6E-A638-D119D8A2B44F";
paths = (
{
closed = 1;
nodes = (
"147 723 LINE",
"234 723 LINE",
"233 622 LINE",
"233 622 OFFCURVE",
"354 724 OFFCURVE",
"456 723 CURVE",
"552 723 OFFCURVE",
"645 690 OFFCURVE",
"645 554 CURVE",
"645 307 OFFCURVE",
"397 334 OFFCURVE",
"397 334 CURVE",
"397 334 OFFCURVE",
"371 209 OFFCURVE",
"347 143 CURVE",
"289 -23 OFFCURVE",
"92 1 OFFCURVE",
"92 1 CURVE",
"92 1 OFFCURVE",
"209 89 OFFCURVE",
"222 150 CURVE",
"236 214 OFFCURVE",
"233 294 OFFCURVE",
"235 346 CURVE",
"237 386 OFFCURVE",
"267 420 OFFCURVE",
"328 421 CURVE",
"372 422 OFFCURVE",
"376 405 OFFCURVE",
"432 403 CURVE",
"453 403 OFFCURVE",
"498 422 OFFCURVE",
"496 492 CURVE",
"495 527 OFFCURVE",
"485 611 OFFCURVE",
"379 613 CURVE",
"294 615 OFFCURVE",
"219 476 OFFCURVE",
"216 430 CURVE",
"210 326 OFFCURVE",
"52 295 OFFCURVE",
"52 295 CURVE",
"87 593 LINE",
"30 593 LINE",
"147 724 LINE"
);
}
);
width = 675;
}
);
unicode = 004B;
},
{
glyphname = L;
lastChange = "2020-03-04 23:07:02 +0000";
layers = (
{
layerId = "4CCF3E11-34F0-4D6E-A638-D119D8A2B44F";
paths = (
{
closed = 1;
nodes = (
"459 726 LINE",
"383 78 LINE",
"440 76 LINE",
"606 194 LINE",
"494 23 LINE",
"360 1 LINE",
"30 1 LINE",
"31 52 LINE",
"93 113 LINE",
"255 113 LINE",
"326 580 LINE",
"272 578 LINE",
"272 631 LINE",
"407 727 LINE",
"459 726 LINE"
);
}
);
width = 636;
}
);
unicode = 004C;
},
{
glyphname = M;
lastChange = "2020-03-04 23:08:40 +0000";
layers = (
{
layerId = "4CCF3E11-34F0-4D6E-A638-D119D8A2B44F";
paths = (
{
closed = 1;
nodes = (
"158 763 LINE",
"220 762 OFFCURVE",
"266 662 OFFCURVE",
"266 662 CURVE",
"541 130 LINE",
"658 130 LINE",
"658 130 OFFCURVE",
"610 1 OFFCURVE",
"536 1 CURVE",
"457 1 OFFCURVE",
"385 130 OFFCURVE",
"385 132 CURVE",
"140 615 LINE",
"140 615 OFFCURVE",
"140 273 OFFCURVE",
"140 192 CURVE",
"140 172 OFFCURVE",
"181 131 OFFCURVE",
"201 130 CURVE",
"243 129 OFFCURVE",
"385 132 OFFCURVE",
"385 132 CURVE",
"288 20 LINE",
"288 20 OFFCURVE",
"200 19 OFFCURVE",
"151 20 CURVE",
"101 21 OFFCURVE",
"30 140 OFFCURVE",
"30 195 CURVE",
"30 304 OFFCURVE",
"29 546 OFFCURVE",
"30 647 CURVE",
"30 702 OFFCURVE",
"115 763 OFFCURVE",
"158 763 CURVE"
);
},
{
closed = 1;
nodes = (
"383 745 LINE",
"451 751 OFFCURVE",
"491 676 OFFCURVE",
"491 676 CURVE",
"774 130 LINE",
"905 130 LINE",
"905 130 OFFCURVE",
"819 -1 OFFCURVE",
"740 1 CURVE",
"629 3 OFFCURVE",
"625 136 OFFCURVE",
"582 220 CURVE",
"526 330 OFFCURVE",
"415 531 OFFCURVE",
"377 605 CURVE",
"354 649 OFFCURVE",
"237 613 OFFCURVE",
"238 636 CURVE",
"239 673 OFFCURVE",
"326 740 OFFCURVE",
"383 745 CURVE"
);
}
);
width = 935;
}
);
unicode = 004D;
},
{
glyphname = N;
lastChange = "2020-03-04 23:12:00 +0000";
layers = (
{
layerId = "4CCF3E11-34F0-4D6E-A638-D119D8A2B44F";
paths = (
{
closed = 1;
nodes = (
"145 750 LINE",
"242 750 LINE",
"219 73 LINE",
"104 1 LINE",
"104 1 OFFCURVE",
"103 390 OFFCURVE",
"102 494 CURVE",
"101 541 OFFCURVE",
"86 624 OFFCURVE",
"86 624 CURVE",
"31 643 LINE",
"30 677 LINE",
"145 752 LINE"
);
},
{
closed = 1;
nodes = (
"443 750 LINE",
"774 750 LINE",
"713 660 LINE",
"561 660 LINE",
"561 660 OFFCURVE",
"720 479 OFFCURVE",
"719 377 CURVE",
"719 257 OFFCURVE",
"641 100 OFFCURVE",
"489 100 CURVE",
"316 101 OFFCURVE",
"199 303 OFFCURVE",
"199 303 CURVE",
"198 413 LINE",
"198 413 OFFCURVE",
"337 235 OFFCURVE",
"440 235 CURVE",
"495 235 OFFCURVE",
"584 281 OFFCURVE",
"584 411 CURVE",
"586 607 OFFCURVE",
"391 646 OFFCURVE",
"391 646 CURVE",
"443 751 LINE"
);
}
);
width = 804;
}
);
unicode = 004E;
},
{
glyphname = O;
lastChange = "2020-03-04 23:13:34 +0000";
layers = (
{
layerId = "4CCF3E11-34F0-4D6E-A638-D119D8A2B44F";
paths = (
{
closed = 1;
nodes = (
"30 471 OFFCURVE",
"249 725 OFFCURVE",
"444 725 CURVE SMOOTH",
"661 725 OFFCURVE",
"719 568 OFFCURVE",
"719 430 CURVE SMOOTH",
"719 251 OFFCURVE",
"519 1 OFFCURVE",
"311 1 CURVE SMOOTH",
"77 1 OFFCURVE",
"30 138 OFFCURVE",
"30 297 CURVE SMOOTH"
);
},
{
closed = 1;
nodes = (
"135 239 OFFCURVE",
"262 100 OFFCURVE",
"364 119 CURVE SMOOTH",
"551 154 OFFCURVE",
"567 218 OFFCURVE",
"606 353 CURVE SMOOTH",
"630 437 OFFCURVE",
"558 642 OFFCURVE",
"371 604 CURVE SMOOTH",
"237 577 OFFCURVE",
"164 477 OFFCURVE",
"148 347 CURVE SMOOTH"
);
}
);
width = 749;
}
);
unicode = 004F;
},
{
glyphname = P;
lastChange = "2020-03-04 23:15:21 +0000";
layers = (
{
layerId = "4CCF3E11-34F0-4D6E-A638-D119D8A2B44F";
paths = (
{
closed = 1;
nodes = (
"501 731 LINE",
"591 726 OFFCURVE",
"679 705 OFFCURVE",
"680 677 CURVE",
"680 637 OFFCURVE",
"615 618 OFFCURVE",
"575 618 CURVE",
"531 618 OFFCURVE",
"478 658 OFFCURVE",
"412 658 CURVE",
"192 658 OFFCURVE",
"113 360 OFFCURVE",
"116 292 CURVE",
"116 76 OFFCURVE",
"281 103 OFFCURVE",
"281 103 CURVE",
"301 452 LINE",
"301 452 OFFCURVE",
"332 452 OFFCURVE",
"360 455 CURVE",
"397 458 OFFCURVE",
"414 528 OFFCURVE",
"512 526 CURVE",
"613 526 OFFCURVE",
"689 441 OFFCURVE",
"686 332 CURVE",
"686 81 OFFCURVE",
"374 1 OFFCURVE",
"374 1 CURVE",
"374 1 OFFCURVE",
"557 209 OFFCURVE",
"552 299 CURVE",
"543 459 OFFCURVE",
"406 432 OFFCURVE",
"406 432 CURVE",
"378 61 LINE",
"323 6 LINE",
"180 6 LINE",
"180 6 OFFCURVE",
"30 128 OFFCURVE",
"30 243 CURVE",
"17 596 OFFCURVE",
"353 739 OFFCURVE",
"501 731 CURVE"
);
}
);
width = 716;
}
);
unicode = 0050;
},
{
glyphname = Q;
lastChange = "2020-03-04 23:18:32 +0000";
layers = (
{
layerId = "4CCF3E11-34F0-4D6E-A638-D119D8A2B44F";
paths = (
{
closed = 1;
nodes = (
"466 761 LINE",
"659 764 OFFCURVE",
"713 647 OFFCURVE",
"713 587 CURVE",
"719 489 OFFCURVE",
"664 421 OFFCURVE",
"664 421 CURVE",
"648 97 LINE",
"505 17 LINE",
"551 129 LINE",
"551 421 LINE",
"551 421 OFFCURVE",
"616 453 OFFCURVE",
"615 577 CURVE",
"615 681 OFFCURVE",
"542 708 OFFCURVE",
"466 709 CURVE",
"393 709 OFFCURVE",
"301 635 OFFCURVE",
"296 528 CURVE",
"296 499 OFFCURVE",
"306 449 OFFCURVE",
"329 449 CURVE",
"361 450 OFFCURVE",
"359 483 OFFCURVE",
"380 483 CURVE",
"409 484 OFFCURVE",
"426 483 OFFCURVE",
"426 481 CURVE",
"426 481 OFFCURVE",
"426 345 OFFCURVE",
"426 271 CURVE",
"426 199 OFFCURVE",
"373 117 OFFCURVE",
"319 68 CURVE",
"173 -65 OFFCURVE",
"30 51 OFFCURVE",
"30 51 CURVE",
"30 51 OFFCURVE",
"147 37 OFFCURVE",
"230 126 CURVE",
"278 177 OFFCURVE",
"317 316 OFFCURVE",
"317 316 CURVE",
"317 316 OFFCURVE",
"142 364 OFFCURVE",
"142 487 CURVE",
"141 596 OFFCURVE",
"279 761 OFFCURVE",
"466 761 CURVE"
);
}
);
width = 743;
}
);
unicode = 0051;
},
{
glyphname = R;
lastChange = "2020-03-04 23:20:01 +0000";
layers = (
{
layerId = "4CCF3E11-34F0-4D6E-A638-D119D8A2B44F";
paths = (
{
closed = 1;
nodes = (
"209 799 LINE",
"278 730 LINE",
"278 730 OFFCURVE",
"292 730 OFFCURVE",
"318 730 CURVE",
"367 730 OFFCURVE",
"388 785 OFFCURVE",
"489 787 CURVE",
"606 788 OFFCURVE",
"701 659 OFFCURVE",
"702 606 CURVE",
"703 513 OFFCURVE",
"480 409 OFFCURVE",
"480 409 CURVE",
"442 147 LINE",
"625 194 LINE",
"401 59 LINE",
"303 59 LINE",
"345 466 LINE",
"395 469 LINE",
"445 521 LINE",
"445 521 OFFCURVE",
"536 518 OFFCURVE",
"537 605 CURVE",
"538 646 OFFCURVE",
"484 709 OFFCURVE",
"437 707 CURVE",
"404 706 OFFCURVE",
"381 672 OFFCURVE",
"350 653 CURVE",
"305 624 OFFCURVE",
"256 610 OFFCURVE",
"256 610 CURVE",
"256 610 OFFCURVE",
"198 232 OFFCURVE",
"182 128 CURVE",
"174 74 OFFCURVE",
"94 -3 OFFCURVE",
"68 -3 CURVE",
"60 -2 OFFCURVE",
"29 15 OFFCURVE",
"30 31 CURVE",
"44 155 OFFCURVE",
"124 672 OFFCURVE",
"124 672 CURVE",
"48 672 LINE",
"209 799 LINE"
);
}
);
width = 732;
}
);
unicode = 0052;
},
{
glyphname = S;
lastChange = "2020-03-04 23:21:49 +0000";
layers = (
{
layerId = "4CCF3E11-34F0-4D6E-A638-D119D8A2B44F";
paths = (
{
closed = 1;
nodes = (
"411 754 LINE",
"498 754 OFFCURVE",
"655 741 OFFCURVE",
"659 652 CURVE",
"659 607 OFFCURVE",
"596 532 OFFCURVE",
"596 532 CURVE",
"596 532 OFFCURVE",
"507 680 OFFCURVE",
"393 680 CURVE",
"330 678 OFFCURVE",
"230 605 OFFCURVE",
"225 502 CURVE",
"219 398 OFFCURVE",
"194 85 OFFCURVE",
"194 85 CURVE",
"30 1 LINE",
"30 1 OFFCURVE",
"93 406 OFFCURVE",
"116 544 CURVE",
"134 652 OFFCURVE",
"322 751 OFFCURVE",
"411 754 CURVE"
);
},
{
closed = 1;
nodes = (
"436 492 LINE",
"649 493 OFFCURVE",
"628 367 OFFCURVE",
"625 290 CURVE",
"625 161 OFFCURVE",
"410 29 OFFCURVE",
"410 29 CURVE",
"306 29 LINE",
"306 29 OFFCURVE",
"479 206 OFFCURVE",
"479 285 CURVE",
"481 336 OFFCURVE",
"436 384 OFFCURVE",
"392 384 CURVE",
"350 384 OFFCURVE",
"186 268 OFFCURVE",
"186 268 CURVE",
"182 403 LINE",
"182 403 OFFCURVE",
"211 422 OFFCURVE",
"248 433 CURVE",
"296 448 OFFCURVE",
"315 492 OFFCURVE",
"436 492 CURVE"
);
}
);
width = 689;
}
);
unicode = 0053;
},
{
glyphname = T;
lastChange = "2020-03-04 23:26:22 +0000";
layers = (
{
layerId = "4CCF3E11-34F0-4D6E-A638-D119D8A2B44F";
paths = (
{
closed = 1;
nodes = (
"352 778 LINE",
"440 778 OFFCURVE",
"578 726 OFFCURVE",
"577 642 CURVE",
"577 504 OFFCURVE",
"577 74 OFFCURVE",
"577 74 CURVE",
"463 1 LINE",
"463 1 OFFCURVE",
"464 451 OFFCURVE",
"464 570 CURVE",
"463 669 OFFCURVE",
"359 706 OFFCURVE",
"290 706 CURVE",
"218 709 OFFCURVE",
"30 594 OFFCURVE",
"30 594 CURVE",
"30 594 OFFCURVE",
"198 774 OFFCURVE",
"352 778 CURVE"
);
}
);
width = 607;
}
);
unicode = 0054;
},
{
glyphname = U;
lastChange = "2020-03-04 23:30:10 +0000";
layers = (
{
layerId = "4CCF3E11-34F0-4D6E-A638-D119D8A2B44F";
paths = (
{
closed = 1;
nodes = (
"315 615 LINE",
"315 615 OFFCURVE",
"448 765 OFFCURVE",
"534 765 CURVE",
"623 765 OFFCURVE",
"800 598 OFFCURVE",
"797 434 CURVE",
"797 258 OFFCURVE",
"597 1 OFFCURVE",
"379 1 CURVE",
"245 3 OFFCURVE",
"30 133 OFFCURVE",
"30 234 CURVE",
"29 345 OFFCURVE",
"178 497 OFFCURVE",
"180 565 CURVE",
"181 590 OFFCURVE",
"182 624 OFFCURVE",
"182 620 CURVE",
"71 620 LINE",
"71 620 OFFCURVE",
"142 763 OFFCURVE",
"208 762 CURVE",
"267 762 OFFCURVE",
"297 714 OFFCURVE",
"296 668 CURVE",
"293 550 OFFCURVE",
"175 436 OFFCURVE",
"174 318 CURVE",
"173 217 OFFCURVE",
"227 60 OFFCURVE",
"382 67 CURVE",
"552 75 OFFCURVE",
"652 300 OFFCURVE",
"652 401 CURVE",
"649 573 OFFCURVE",
"515 637 OFFCURVE",
"453 638 CURVE",
"396 639 OFFCURVE",
"315 615 OFFCURVE",
"315 615 CURVE"
);
},
{
closed = 1;
nodes = (
"455 661 LINE",
"459 59 LINE",
"343 57 LINE",
"315 614 LINE",
"455 661 LINE"
);
}
);
width = 827;
}
);
unicode = 0055;
},
{
glyphname = V;
lastChange = "2020-03-04 23:32:59 +0000";
layers = (
{
layerId = "4CCF3E11-34F0-4D6E-A638-D119D8A2B44F";
paths = (
{
closed = 1;
nodes = (
"535 691 LINE",
"669 691 OFFCURVE",
"676 611 OFFCURVE",
"676 537 CURVE",
"675 477 OFFCURVE",
"639 375 OFFCURVE",
"569 330 CURVE",
"445 252 OFFCURVE",
"30 1 OFFCURVE",
"30 1 CURVE",
"62 636 LINE",
"137 690 LINE",
"207 691 LINE",
"116 126 LINE",
"116 126 OFFCURVE",
"328 249 OFFCURVE",
"406 296 CURVE",
"468 334 OFFCURVE",
"525 412 OFFCURVE",
"527 471 CURVE",
"529 529 OFFCURVE",
"481 564 OFFCURVE",
"439 563 CURVE",
"391 561 OFFCURVE",
"244 426 OFFCURVE",
"244 426 CURVE",
"244 426 OFFCURVE",
"340 695 OFFCURVE",
"535 691 CURVE"
);
}
);
width = 706;
}
);
unicode = 0056;
},
{
glyphname = W;
lastChange = "2020-03-04 23:36:29 +0000";
layers = (
{
layerId = "4CCF3E11-34F0-4D6E-A638-D119D8A2B44F";
paths = (
{
closed = 1;
nodes = (
"639 650 LINE",
"709 650 OFFCURVE",
"757 574 OFFCURVE",
"757 504 CURVE",
"757 447 OFFCURVE",
"699 352 OFFCURVE",
"629 297 CURVE",
"460 163 OFFCURVE",
"253 1 OFFCURVE",
"253 8 CURVE",
"253 8 OFFCURVE",
"484 250 OFFCURVE",
"551 323 CURVE",
"584 359 OFFCURVE",
"626 406 OFFCURVE",
"626 465 CURVE",
"625 509 OFFCURVE",
"596 530 OFFCURVE",
"570 531 CURVE",
"543 532 OFFCURVE",
"472 526 OFFCURVE",
"472 526 CURVE",
"472 526 OFFCURVE",
"555 651 OFFCURVE",
"639 649 CURVE"
);
},
{
closed = 1;
nodes = (
"422 650 LINE",
"484 650 OFFCURVE",
"531 599 OFFCURVE",
"531 552 CURVE",
"531 460 OFFCURVE",
"492 380 OFFCURVE",
"434 332 CURVE",
"339 251 OFFCURVE",
"30 1 OFFCURVE",
"30 1 CURVE",
"86 541 LINE",
"46 571 LINE",
"46 571 OFFCURVE",
"137 655 OFFCURVE",
"165 655 CURVE",
"207 654 OFFCURVE",
"209 605 OFFCURVE",
"204 577 CURVE",
"191 497 OFFCURVE",
"148 178 OFFCURVE",
"148 178 CURVE",
"148 178 OFFCURVE",
"252 264 OFFCURVE",
"337 342 CURVE",
"373 376 OFFCURVE",
"399 428 OFFCURVE",
"399 466 CURVE",
"399 521 OFFCURVE",
"379 562 OFFCURVE",
"351 562 CURVE",
"324 563 OFFCURVE",
"247 524 OFFCURVE",
"247 524 CURVE",
"247 524 OFFCURVE",
"348 653 OFFCURVE",
"422 654 CURVE"
);
}
);
width = 787;
}
);
unicode = 0057;
},
{
glyphname = X;
lastChange = "2020-03-04 23:38:59 +0000";
layers = (
{
layerId = "4CCF3E11-34F0-4D6E-A638-D119D8A2B44F";
paths = (
{
closed = 1;
nodes = (
"618 617 LINE",
"676 617 OFFCURVE",
"744 615 OFFCURVE",
"744 570 CURVE",
"744 398 OFFCURVE",
"211 233 OFFCURVE",
"207 73 CURVE",
"206 53 OFFCURVE",
"267 30 OFFCURVE",
"267 30 CURVE",
"267 30 OFFCURVE",
"204 2 OFFCURVE",
"156 1 CURVE",
"112 0 OFFCURVE",
"38 4 OFFCURVE",
"38 47 CURVE",
"37 240 OFFCURVE",
"566 438 OFFCURVE",
"566 528 CURVE",
"566 571 OFFCURVE",
"519 584 OFFCURVE",
"519 584 CURVE",
"519 584 OFFCURVE",
"584 618 OFFCURVE",
"618 617 CURVE"
);
},
{
closed = 1;
nodes = (
"233 647 LINE",
"322 647 OFFCURVE",
"414 523 OFFCURVE",
"475 387 CURVE",
"539 245 OFFCURVE",
"603 118 OFFCURVE",
"647 115 CURVE",
"688 115 OFFCURVE",
"766 163 OFFCURVE",
"766 163 CURVE",
"766 163 OFFCURVE",
"677 2 OFFCURVE",
"599 1 CURVE",
"440 1 OFFCURVE",
"364 149 OFFCURVE",
"313 287 CURVE",
"270 404 OFFCURVE",
"230 501 OFFCURVE",
"143 501 CURVE",
"101 501 OFFCURVE",
"30 448 OFFCURVE",
"30 448 CURVE",
"30 448 OFFCURVE",
"66 647 OFFCURVE",
"233 647 CURVE"
);
}
);
width = 796;
}
);
unicode = 0058;
},
{
glyphname = Y;
lastChange = "2020-03-04 23:40:49 +0000";
layers = (
{
layerId = "4CCF3E11-34F0-4D6E-A638-D119D8A2B44F";
paths = (
{
closed = 1;
nodes = (
"563 670 LINE",
"622 670 OFFCURVE",
"682 618 OFFCURVE",
"681 562 CURVE",
"681 388 OFFCURVE",
"407 281 OFFCURVE",
"320 217 CURVE",
"279 187 OFFCURVE",
"255 144 OFFCURVE",
"202 87 CURVE",
"109 -13 OFFCURVE",
"30 1 OFFCURVE",
"30 1 CURVE",
"30 1 OFFCURVE",
"108 121 OFFCURVE",
"124 189 CURVE",
"145 279 OFFCURVE",
"157 541 OFFCURVE",
"157 541 CURVE",
"101 541 LINE",
"101 541 OFFCURVE",
"156 667 OFFCURVE",
"240 670 CURVE",
"270 670 OFFCURVE",
"286 608 OFFCURVE",
"286 565 CURVE",
"285 528 OFFCURVE",
"256 456 OFFCURVE",
"253 409 CURVE",
"249 335 OFFCURVE",
"248 267 OFFCURVE",
"248 267 CURVE",
"248 267 OFFCURVE",
"320 290 OFFCURVE",
"389 346 CURVE",
"438 387 OFFCURVE",
"538 473 OFFCURVE",
"538 512 CURVE",
"538 553 OFFCURVE",
"516 576 OFFCURVE",
"490 576 CURVE",
"472 576 OFFCURVE",
"442 542 OFFCURVE",
"414 541 CURVE",
"387 540 OFFCURVE",
"364 540 OFFCURVE",
"364 540 CURVE",
"364 540 OFFCURVE",
"471 670 OFFCURVE",
"563 669 CURVE"
);
}
);
width = 711;
}
);
unicode = 0059;
},
{
glyphname = Z;
lastChange = "2020-03-04 23:52:12 +0000";
layers = (
{
layerId = "4CCF3E11-34F0-4D6E-A638-D119D8A2B44F";
paths = (
{
closed = 1;
nodes = (
"29 144 OFFCURVE",
"116 252 OFFCURVE",
"162 295 CURVE SMOOTH",
"288 413 OFFCURVE",
"437 448 OFFCURVE",
"493 421 CURVE SMOOTH",
"518 409 OFFCURVE",
"515 408 OFFCURVE",
"515 408 CURVE",
"515 408 OFFCURVE",
"656 509 OFFCURVE",
"670 523 CURVE SMOOTH",
"679 532 OFFCURVE",
"621 511 OFFCURVE",
"608 511 CURVE SMOOTH",
"532 511 OFFCURVE",
"220 510 OFFCURVE",
"220 510 CURVE",
"220 510 OFFCURVE",
"369 638 OFFCURVE",
"412 636 CURVE SMOOTH",
"440 635 OFFCURVE",
"466 583 OFFCURVE",
"466 583 CURVE",
"466 583 OFFCURVE",
"550 580 OFFCURVE",
"581 582 CURVE SMOOTH",
"598 583 OFFCURVE",
"620 602 OFFCURVE",
"642 602 CURVE SMOOTH",
"671 602 OFFCURVE",
"743 586 OFFCURVE",
"743 547 CURVE SMOOTH",
"743 533 OFFCURVE",
"716 511 OFFCURVE",
"690 481 CURVE SMOOTH",
"642 425 OFFCURVE",
"551 335 OFFCURVE",
"551 335 CURVE",
"535 129 LINE",
"535 129 OFFCURVE",
"595 127 OFFCURVE",
"616 128 CURVE SMOOTH",
"641 129 OFFCURVE",
"713 145 OFFCURVE",
"713 145 CURVE",
"401 1 LINE",
"421 239 LINE",
"421 239 LINE",
"421 239 OFFCURVE",
"318 138 OFFCURVE",
"266 98 CURVE SMOOTH",
"219 62 OFFCURVE",
"169 3 OFFCURVE",
"112 1 CURVE SMOOTH",
"74 0 OFFCURVE",
"31 52 OFFCURVE",
"30 89 CURVE SMOOTH"
);
},
{
closed = 1;
nodes = (
"161 94 OFFCURVE",
"249 160 OFFCURVE",
"295 195 CURVE SMOOTH",
"338 227 OFFCURVE",
"424 314 OFFCURVE",
"424 314 CURVE",
"424 314 OFFCURVE",
"409 347 OFFCURVE",
"360 343 CURVE SMOOTH",
"326 340 OFFCURVE",
"265 298 OFFCURVE",
"225 265 CURVE SMOOTH",
"180 228 OFFCURVE",
"96 151 OFFCURVE",
"135 117 CURVE SMOOTH"
);
}
);
width = 773;
}
);
unicode = 005A;
},
{
glyphname = a;
lastChange = "2020-03-04 23:57:32 +0000";
layers = (
{
layerId = "4CCF3E11-34F0-4D6E-A638-D119D8A2B44F";
paths = (
{
closed = 1;
nodes = (
"124 76 LINE",
"124 424 LINE",
"51 463 LINE",
"151 573 LINE",
"214 573 LINE",
"215 573 LINE",
"214 92 LINE",
"30 -116 LINE"
);
},
{
closed = 1;
nodes = (
"187 293 OFFCURVE",
"290 386 OFFCURVE",
"388 385 CURVE",
"388 385 LINE",
"448 385 OFFCURVE",
"532 326 OFFCURVE",
"531 249 CURVE SMOOTH",
"530 175 OFFCURVE",
"468 89 OFFCURVE",
"358 85 CURVE SMOOTH",
"277 82 OFFCURVE",
"191 190 OFFCURVE",
"191 190 CURVE",
"187 293 LINE"
);
},
{
closed = 1;
nodes = (
"194 430 OFFCURVE",
"288 552 OFFCURVE",
"392 556 CURVE",
"392 556 LINE",
"445 558 OFFCURVE",
"512 529 OFFCURVE",
"512 504 CURVE SMOOTH",
"512 489 OFFCURVE",
"517 471 OFFCURVE",
"506 464 CURVE SMOOTH",
"496 457 OFFCURVE",
"484 456 OFFCURVE",
"444 465 CURVE SMOOTH",
"416 471 OFFCURVE",
"397 492 OFFCURVE",
"355 490 CURVE SMOOTH",
"299 487 OFFCURVE",
"194 346 OFFCURVE",
"194 346 CURVE",
"194 430 LINE"
);
},
{
closed = 1;
nodes = (
"233 250 OFFCURVE",
"336 138 OFFCURVE",
"381 148 CURVE SMOOTH",
"408 154 OFFCURVE",
"419 177 OFFCURVE",
"425 210 CURVE SMOOTH",
"434 257 OFFCURVE",
"396 317 OFFCURVE",
"340 316 CURVE SMOOTH",
"299 315 OFFCURVE",
"233 250 OFFCURVE",
"233 250 CURVE"
);
}
);
width = 561;
}
);
unicode = 0061;
},
{
glyphname = b;
lastChange = "2020-03-04 23:56:15 +0000";
layers = (
{
layerId = "4CCF3E11-34F0-4D6E-A638-D119D8A2B44F";
paths = (
{
closed = 1;
nodes = (
"367 582 LINE",
"310 208 LINE",
"206 134 LINE",
"206 134 OFFCURVE",
"213 246 OFFCURVE",
"224 301 CURVE",
"236 357 OFFCURVE",
"273 470 OFFCURVE",
"273 470 CURVE",
"199 493 LINE",
"316 581 LINE",
"367 582 LINE"
);
},
{
closed = 1;
nodes = (
"366 418 LINE",
"420 419 OFFCURVE",
"498 368 OFFCURVE",
"498 320 CURVE",
"498 241 OFFCURVE",
"422 141 OFFCURVE",
"365 135 CURVE",
"319 131 OFFCURVE",
"206 134 OFFCURVE",
"206 134 CURVE",
"291 208 LINE",
"291 208 OFFCURVE",
"357 209 OFFCURVE",
"378 209 CURVE",
"401 210 OFFCURVE",
"405 261 OFFCURVE",
"405 287 CURVE",
"405 313 OFFCURVE",
"378 359 OFFCURVE",
"348 358 CURVE",
"300 357 OFFCURVE",
"141 261 OFFCURVE",
"140 161 CURVE",
"139 112 OFFCURVE",
"204 58 OFFCURVE",
"249 58 CURVE",
"296 58 OFFCURVE",
"408 115 OFFCURVE",
"408 115 CURVE",
"408 115 OFFCURVE",
"328 0 OFFCURVE",
"204 1 CURVE",
"141 1 OFFCURVE",
"26 36 OFFCURVE",
"30 103 CURVE",
"37 239 OFFCURVE",
"280 416 OFFCURVE",
"366 418 CURVE"
);
}
);
width = 528;
}
);
unicode = 0062;
},
{
glyphname = c;
lastChange = "2020-03-04 23:58:19 +0000";
layers = (
{
layerId = "4CCF3E11-34F0-4D6E-A638-D119D8A2B44F";
paths = (
{
closed = 1;
nodes = (
"402 556 LINE",
"402 201 LINE",
"311 163 LINE",
"309 481 LINE",
"309 481 OFFCURVE",
"140 449 OFFCURVE",
"140 262 CURVE",
"140 141 OFFCURVE",
"309 1 OFFCURVE",
"309 1 CURVE",
"309 1 OFFCURVE",
"26 14 OFFCURVE",
"30 230 CURVE",
"33 342 OFFCURVE",
"135 454 OFFCURVE",
"220 504 CURVE",
"278 538 OFFCURVE",
"328 538 OFFCURVE",
"328 538 CURVE",
"329 555 LINE",
"402 556 LINE"
);
}
);
width = 432;
}
);
unicode = 0063;
},
{
glyphname = d;
lastChange = "2020-03-04 23:59:26 +0000";
layers = (
{
layerId = "4CCF3E11-34F0-4D6E-A638-D119D8A2B44F";
paths = (
{
closed = 1;
nodes = (
"367 652 LINE",
"385 60 LINE",
"311 2 LINE",
"276 94 LINE",
"274 522 LINE",
"183 556 LINE",
"296 652 LINE",
"367 652 LINE"
);
},
{
closed = 1;
nodes = (
"279 88 LINE",
"311 1 LINE",
"311 1 OFFCURVE",
"204 1 OFFCURVE",
"149 1 CURVE",
"98 2 OFFCURVE",
"29 83 OFFCURVE",
"30 143 CURVE",
"32 350 OFFCURVE",
"326 449 OFFCURVE",
"419 448 CURVE",
"469 447 OFFCURVE",
"533 420 OFFCURVE",
"533 392 CURVE",
"534 372 OFFCURVE",
"484 336 OFFCURVE",
"460 337 CURVE",
"434 338 OFFCURVE",
"401 376 OFFCURVE",
"372 375 CURVE",
"313 374 OFFCURVE",
"144 301 OFFCURVE",
"141 183 CURVE",
"139 138 OFFCURVE",
"193 77 OFFCURVE",
"220 76 CURVE",
"257 74 OFFCURVE",
"279 88 OFFCURVE",
"279 88 CURVE"
);
}
);
width = 563;
}
);
unicode = 0064;
},
{
glyphname = e;
lastChange = "2020-03-05 00:02:41 +0000";
layers = (
{
layerId = "4CCF3E11-34F0-4D6E-A638-D119D8A2B44F";
paths = (
{
closed = 1;
nodes = (
"305 657 LINE",
"412 657 OFFCURVE",
"643 582 OFFCURVE",
"642 339 CURVE",
"642 49 OFFCURVE",
"234 1 OFFCURVE",
"234 1 CURVE",
"234 1 OFFCURVE",
"469 101 OFFCURVE",
"466 283 CURVE",
"464 525 OFFCURVE",
"338 575 OFFCURVE",
"245 573 CURVE",
"165 571 OFFCURVE",
"82 414 OFFCURVE",
"82 414 CURVE",
"30 414 LINE",
"30 520 LINE",
"66 520 LINE",
"66 520 OFFCURVE",
"168 657 OFFCURVE",
"305 657 CURVE"
);
},
{
closed = 1;
nodes = (
"144 374 LINE",
"495 374 LINE",
"504 264 LINE",
"68 264 LINE",
"144 374 LINE"
);
}
);
width = 672;
}
);
unicode = 0065;
},
{
glyphname = f;
lastChange = "2020-03-05 00:04:08 +0000";
layers = (
{
layerId = "4CCF3E11-34F0-4D6E-A638-D119D8A2B44F";
paths = (
{
closed = 1;
nodes = (
"286 629 LINE",
"353 631 OFFCURVE",
"461 584 OFFCURVE",
"477 511 CURVE",
"486 468 OFFCURVE",
"440 404 OFFCURVE",
"425 404 CURVE",
"409 405 OFFCURVE",
"392 442 OFFCURVE",
"381 485 CURVE",
"371 526 OFFCURVE",
"324 561 OFFCURVE",
"272 556 CURVE",
"206 550 OFFCURVE",
"190 483 OFFCURVE",
"182 424 CURVE",
"168 335 OFFCURVE",
"128 37 OFFCURVE",
"128 37 CURVE",
"85 1 LINE",
"30 1 LINE",
"30 1 OFFCURVE",
"72 328 OFFCURVE",
"89 440 CURVE",
"105 543 OFFCURVE",
"219 627 OFFCURVE",
"286 629 CURVE"
);
}
);
width = 508;
}
);
unicode = 0066;
},
{
glyphname = g;
lastChange = "2020-03-05 00:05:57 +0000";
layers = (
{
layerId = "4CCF3E11-34F0-4D6E-A638-D119D8A2B44F";
paths = (
{
closed = 1;
nodes = (
"460 618 LINE",
"448 271 LINE",
"318 217 LINE",
"318 361 LINE",
"349 361 LINE",
"349 534 LINE",
"349 534 OFFCURVE",
"147 511 OFFCURVE",
"151 299 CURVE",
"151 130 OFFCURVE",
"330 1 OFFCURVE",
"330 1 CURVE",
"330 1 OFFCURVE",
"30 53 OFFCURVE",
"30 270 CURVE",
"39 525 OFFCURVE",
"389 602 OFFCURVE",
"389 602 CURVE",
"392 618 LINE",
"460 618 LINE"
);
},
{
closed = 1;
nodes = (
"555 490 LINE",
"555 417 LINE",
"245 417 LINE",
"299 490 LINE",
"555 487 LINE"
);
}
);
width = 585;
}
);
unicode = 0067;
},
{
glyphname = h;
lastChange = "2020-03-05 00:07:53 +0000";
layers = (
{
layerId = "4CCF3E11-34F0-4D6E-A638-D119D8A2B44F";
paths = (
{
closed = 1;
nodes = (
"183 650 LINE",
"183 131 LINE",
"197 130 LINE",
"197 56 LINE",
"102 1 LINE",
"102 518 LINE",
"30 549 LINE",
"147 651 LINE",
"188 650 LINE"
);
},
{
closed = 1;
nodes = (
"428 445 LINE",
"438 445 OFFCURVE",
"458 433 OFFCURVE",
"458 419 CURVE",
"459 389 OFFCURVE",
"387 324 OFFCURVE",
"338 294 CURVE",
"269 251 OFFCURVE",
"163 209 OFFCURVE",
"163 209 CURVE",
"163 209 OFFCURVE",
"141 238 OFFCURVE",
"163 254 CURVE",
"196 278 OFFCURVE",
"254 294 OFFCURVE",
"280 315 CURVE",
"309 338 OFFCURVE",
"350 375 OFFCURVE",
"350 390 CURVE",
"350 405 OFFCURVE",
"311 415 OFFCURVE",
"311 415 CURVE",
"311 415 OFFCURVE",
"385 424 OFFCURVE",
"406 427 CURVE",
"412 428 OFFCURVE",
"421 446 OFFCURVE",
"428 445 CURVE"
);
},
{
closed = 1;
nodes = (
"347 327 LINE",
"347 327 OFFCURVE",
"528 261 OFFCURVE",
"528 194 CURVE",
"527 32 OFFCURVE",
"304 1 OFFCURVE",
"304 7 CURVE",
"304 7 OFFCURVE",
"412 90 OFFCURVE",
"412 163 CURVE",
"411 234 OFFCURVE",
"313 297 OFFCURVE",
"313 297 CURVE",
"347 327 LINE"
);
}
);
width = 558;
}
);
unicode = 0068;
},
{
glyphname = i;
lastChange = "2020-03-05 00:09:33 +0000";
layers = (
{
layerId = "4CCF3E11-34F0-4D6E-A638-D119D8A2B44F";
paths = (
{
closed = 1;
nodes = (
"223 617 LINE",
"256 617 OFFCURVE",
"308 590 OFFCURVE",
"309 557 CURVE",
"310 463 OFFCURVE",
"309 64 OFFCURVE",
"309 64 CURVE",
"181 1 LINE",
"181 486 LINE",
"181 486 OFFCURVE",
"156 486 OFFCURVE",
"131 485 CURVE",
"110 485 OFFCURVE",
"91 446 OFFCURVE",
"80 447 CURVE",
"62 447 OFFCURVE",
"31 466 OFFCURVE",
"31 481 CURVE",
"30 495 OFFCURVE",
"30 524 OFFCURVE",
"30 524 CURVE",
"119 525 LINE",
"119 525 OFFCURVE",
"190 618 OFFCURVE",
"223 617 CURVE"
);
}
);
width = 339;
}
);
unicode = 0069;
},
{
glyphname = j;
lastChange = "2020-03-05 00:11:33 +0000";
layers = (
{
layerId = "4CCF3E11-34F0-4D6E-A638-D119D8A2B44F";
paths = (
{
closed = 1;
nodes = (
"200 634 LINE",
"200 634 OFFCURVE",
"200 516 OFFCURVE",
"199 442 CURVE",
"199 378 OFFCURVE",
"144 261 OFFCURVE",
"144 208 CURVE",
"145 159 OFFCURVE",
"231 111 OFFCURVE",
"292 112 CURVE",
"352 112 OFFCURVE",
"499 165 OFFCURVE",
"499 165 CURVE",
"499 165 OFFCURVE",
"375 1 OFFCURVE",
"252 1 CURVE",
"174 -1 OFFCURVE",
"35 96 OFFCURVE",
"46 184 CURVE",
"53 245 OFFCURVE",
"100 367 OFFCURVE",
"102 441 CURVE",
"104 490 OFFCURVE",
"104 507 OFFCURVE",
"104 507 CURVE",
"53 507 LINE",
"30 550 LINE",
"86 559 LINE",
"165 634 LINE",
"200 634 LINE"
);
},
{
closed = 1;
nodes = (
"438 375 LINE",
"464 375 OFFCURVE",
"496 363 OFFCURVE",
"497 344 CURVE",
"498 331 OFFCURVE",
"445 299 OFFCURVE",
"426 300 CURVE",
"367 300 OFFCURVE",
"146 300 OFFCURVE",
"146 301 CURVE",
"160 375 LINE",
"160 375 OFFCURVE",
"380 373 OFFCURVE",
"438 374 CURVE"
);
}
);
width = 529;
}
);
unicode = 006A;
},
{
glyphname = k;
lastChange = "2020-03-05 00:14:06 +0000";
layers = (
{
layerId = "4CCF3E11-34F0-4D6E-A638-D119D8A2B44F";
paths = (
{
closed = 1;
nodes = (
"163 591 LINE",
"163 591 OFFCURVE",
"194 537 OFFCURVE",
"204 519 CURVE",
"221 490 OFFCURVE",
"320 594 OFFCURVE",
"365 593 CURVE",
"408 592 OFFCURVE",
"475 527 OFFCURVE",
"475 474 CURVE",
"474 262 OFFCURVE",
"293 251 OFFCURVE",
"293 251 CURVE",
"293 251 OFFCURVE",
"294 218 OFFCURVE",
"295 193 CURVE",
"296 152 OFFCURVE",
"223 61 OFFCURVE",
"172 26 CURVE",
"108 -18 OFFCURVE",
"55 1 OFFCURVE",
"55 1 CURVE",
"184 147 LINE",
"184 147 OFFCURVE",
"181 253 OFFCURVE",
"182 287 CURVE",
"183 310 OFFCURVE",
"208 334 OFFCURVE",
"243 342 CURVE",
"296 356 OFFCURVE",
"355 386 OFFCURVE",
"355 430 CURVE",
"355 452 OFFCURVE",
"331 477 OFFCURVE",
"309 478 CURVE",
"294 479 OFFCURVE",
"263 452 OFFCURVE",
"234 433 CURVE",
"209 416 OFFCURVE",
"184 405 OFFCURVE",
"184 405 CURVE",
"142 275 LINE",
"69 236 LINE",
"89 441 LINE",
"30 494 LINE",
"163 591 LINE"
);
}
);
width = 505;
}
);
unicode = 006B;
},
{
glyphname = l;
lastChange = "2020-03-05 09:19:53 +0000";
layers = (
{
layerId = "4CCF3E11-34F0-4D6E-A638-D119D8A2B44F";
paths = (
{
closed = 1;
nodes = (
"152 713 LINE",
"180 687 LINE",
"180 79 LINE",
"387 79 LINE",
"322 1 LINE",
"88 1 LINE",
"88 558 LINE",
"30 581 LINE",
"30 608 LINE",
"152 713 LINE"
);
}
);
width = 417;
}
);
unicode = 006C;
},
{
glyphname = m;
lastChange = "2020-03-05 09:21:21 +0000";
layers = (
{
layerId = "4CCF3E11-34F0-4D6E-A638-D119D8A2B44F";
paths = (
{
closed = 1;
nodes = (
"403 488 LINE",
"493 488 OFFCURVE",
"537 334 OFFCURVE",
"556 262 CURVE",
"596 119 OFFCURVE",
"709 90 OFFCURVE",
"709 90 CURVE",
"709 90 OFFCURVE",
"640 22 OFFCURVE",
"597 22 CURVE",
"540 20 OFFCURVE",
"460 169 OFFCURVE",
"437 241 CURVE",
"417 303 OFFCURVE",
"384 418 OFFCURVE",
"348 417 CURVE",
"304 416 OFFCURVE",
"276 369 OFFCURVE",
"276 369 CURVE",
"276 369 OFFCURVE",
"241 419 OFFCURVE",
"249 432 CURVE",
"266 459 OFFCURVE",
"337 489 OFFCURVE",
"403 488 CURVE"
);
},
{
closed = 1;
nodes = (
"177 506 LINE",
"268 506 OFFCURVE",
"297 394 OFFCURVE",
"324 281 CURVE",
"360 132 OFFCURVE",
"485 66 OFFCURVE",
"485 66 CURVE",
"485 66 OFFCURVE",
"425 22 OFFCURVE",
"391 22 CURVE",
"317 25 OFFCURVE",
"226 208 OFFCURVE",
"220 230 CURVE",
"198 301 OFFCURVE",
"204 394 OFFCURVE",
"157 394 CURVE",
"140 393 OFFCURVE",
"112 339 OFFCURVE",
"113 260 CURVE",
"113 208 OFFCURVE",
"100 85 OFFCURVE",
"180 84 CURVE",
"200 83 OFFCURVE",
"252 96 OFFCURVE",
"252 96 CURVE",
"252 96 OFFCURVE",
"215 1 OFFCURVE",
"163 1 CURVE",
"123 1 OFFCURVE",
"30 82 OFFCURVE",
"30 156 CURVE",
"32 315 OFFCURVE",
"60 505 OFFCURVE",
"177 506 CURVE"
);
}
);
width = 739;
}
);
unicode = 006D;
},
{
glyphname = n;
lastChange = "2020-03-05 09:25:38 +0000";
layers = (
{
layerId = "4CCF3E11-34F0-4D6E-A638-D119D8A2B44F";
paths = (
{
closed = 1;
nodes = (
"483 637 LINE",
"776 637 LINE",
"699 525 LINE",
"446 525 LINE",
"420 550 LINE",
"483 637 LINE"
);
},
{
closed = 1;
nodes = (
"563 545 LINE",
"563 545 OFFCURVE",
"705 403 OFFCURVE",
"703 312 CURVE",
"703 178 OFFCURVE",
"613 55 OFFCURVE",
"469 58 CURVE",
"369 59 OFFCURVE",
"219 244 OFFCURVE",
"219 244 CURVE",
"213 541 LINE",
"213 541 OFFCURVE",
"279 215 OFFCURVE",
"434 217 CURVE",
"520 218 OFFCURVE",
"578 306 OFFCURVE",
"578 361 CURVE",
"578 447 OFFCURVE",
"480 547 OFFCURVE",
"480 547 CURVE",
"563 545 LINE"
);
},
{
closed = 1;
nodes = (
"257 637 LINE",
"257 83 LINE",
"124 1 LINE",
"124 446 LINE",
"89 506 LINE",
"30 506 LINE",
"30 542 LINE",
"67 542 LINE",
"177 637 LINE",
"256 637 LINE"
);
}
);
width = 806;
}
);
unicode = 006E;
},
{
glyphname = o;
lastChange = "2020-03-05 09:27:15 +0000";
layers = (
{
layerId = "4CCF3E11-34F0-4D6E-A638-D119D8A2B44F";
paths = (
{
closed = 1;
nodes = (
"30 465 OFFCURVE",
"255 581 OFFCURVE",
"378 581 CURVE SMOOTH",
"477 581 OFFCURVE",
"535 470 OFFCURVE",
"535 361 CURVE SMOOTH",
"535 250 OFFCURVE",
"394 3 OFFCURVE",
"189 3 CURVE SMOOTH",
"79 3 OFFCURVE",
"30 122 OFFCURVE",
"30 222 CURVE SMOOTH"
);
},
{
closed = 1;
nodes = (
"122 130 OFFCURVE",
"247 103 OFFCURVE",
"302 113 CURVE SMOOTH",
"375 126 OFFCURVE",
"408 183 OFFCURVE",
"429 271 CURVE SMOOTH",
"450 358 OFFCURVE",
"373 493 OFFCURVE",
"276 468 CURVE SMOOTH",
"200 448 OFFCURVE",
"156 383 OFFCURVE",
"142 278 CURVE SMOOTH"
);
}
);
width = 565;
}
);
unicode = 006F;
},
{
glyphname = p;
lastChange = "2020-03-05 09:28:10 +0000";
layers = (
{
layerId = "4CCF3E11-34F0-4D6E-A638-D119D8A2B44F";
paths = (
{
closed = 1;
nodes = (
"279 637 LINE",
"340 636 OFFCURVE",
"458 614 OFFCURVE",
"458 589 CURVE",
"459 558 OFFCURVE",
"430 535 OFFCURVE",
"403 535 CURVE",
"374 535 OFFCURVE",
"349 598 OFFCURVE",
"286 599 CURVE",
"234 599 OFFCURVE",
"105 515 OFFCURVE",
"105 392 CURVE",
"104 279 OFFCURVE",
"182 242 OFFCURVE",
"257 246 CURVE",
"333 249 OFFCURVE",
"401 300 OFFCURVE",
"398 360 CURVE",
"395 412 OFFCURVE",
"346 418 OFFCURVE",
"332 414 CURVE",
"320 410 OFFCURVE",
"308 375 OFFCURVE",
"308 375 CURVE",
"332 466 LINE",
"332 466 OFFCURVE",
"479 483 OFFCURVE",
"480 382 CURVE",
"481 255 OFFCURVE",
"337 197 OFFCURVE",
"251 199 CURVE",
"176 200 OFFCURVE",
"25 256 OFFCURVE",
"30 386 CURVE",
"35 522 OFFCURVE",
"177 638 OFFCURVE",
"279 637 CURVE"
);
},
{
closed = 1;
nodes = (
"332 466 LINE",
"332 466 OFFCURVE",
"336 449 OFFCURVE",
"330 428 CURVE",
"325 411 OFFCURVE",
"311 391 OFFCURVE",
"308 375 CURVE",
"299 324 OFFCURVE",
"296 217 OFFCURVE",
"261 154 CURVE",
"186 18 OFFCURVE",
"87 1 OFFCURVE",
"87 1 CURVE",
"87 1 OFFCURVE",
"173 96 OFFCURVE",
"210 166 CURVE",
"235 214 OFFCURVE",
"229 334 OFFCURVE",
"236 387 CURVE",
"246 462 OFFCURVE",
"332 466 OFFCURVE",
"332 466 CURVE"
);
}
);
width = 510;
}
);
unicode = 0070;
},
{
glyphname = q;
lastChange = "2020-03-05 09:29:13 +0000";
layers = (
{
layerId = "4CCF3E11-34F0-4D6E-A638-D119D8A2B44F";
paths = (
{
closed = 1;
nodes = (
"273 599 LINE",
"388 599 OFFCURVE",
"464 540 OFFCURVE",
"464 438 CURVE",
"467 154 OFFCURVE",
"327 126 OFFCURVE",
"327 126 CURVE",
"327 126 OFFCURVE",
"363 307 OFFCURVE",
"362 382 CURVE",
"362 444 OFFCURVE",
"353 545 OFFCURVE",
"269 545 CURVE",
"128 546 OFFCURVE",
"114 354 OFFCURVE",
"124 351 CURVE",
"144 345 OFFCURVE",
"154 375 OFFCURVE",
"177 376 CURVE",
"204 376 OFFCURVE",
"220 332 OFFCURVE",
"219 304 CURVE",
"219 254 OFFCURVE",
"195 118 OFFCURVE",
"163 69 CURVE",
"110 -10 OFFCURVE",
"30 1 OFFCURVE",
"30 1 CURVE",
"30 1 OFFCURVE",
"82 45 OFFCURVE",
"114 106 CURVE",
"148 170 OFFCURVE",
"142 262 OFFCURVE",
"142 262 CURVE",
"142 262 OFFCURVE",
"28 230 OFFCURVE",
"32 364 CURVE",
"35 470 OFFCURVE",
"161 598 OFFCURVE",
"273 599 CURVE"
);
}
);
width = 494;
}
);
unicode = 0071;
},
{
glyphname = r;
lastChange = "2020-03-05 19:02:24 +0000";
layers = (
{
layerId = "4CCF3E11-34F0-4D6E-A638-D119D8A2B44F";
paths = (
{
closed = 1;
nodes = (
"302 623 LINE",
"363 623 OFFCURVE",
"466 571 OFFCURVE",
"468 503 CURVE",
"468 432 OFFCURVE",
"359 381 OFFCURVE",
"359 381 CURVE",
"359 381 OFFCURVE",
"359 167 OFFCURVE",
"359 107 CURVE",
"359 80 OFFCURVE",
"391 52 OFFCURVE",
"418 51 CURVE",
"453 50 OFFCURVE",
"531 87 OFFCURVE",
"531 87 CURVE",
"531 87 OFFCURVE",
"464 3 OFFCURVE",
"410 1 CURVE",
"368 1 OFFCURVE",
"282 69 OFFCURVE",
"282 120 CURVE",
"282 185 OFFCURVE",
"281 384 OFFCURVE",
"282 384 CURVE",
"252 388 LINE",
"293 426 LINE",
"293 426 OFFCURVE",
"368 442 OFFCURVE",
"368 499 CURVE",
"368 529 OFFCURVE",
"349 572 OFFCURVE",
"284 572 CURVE",
"194 573 OFFCURVE",
"159 459 OFFCURVE",
"159 459 CURVE",
"149 539 LINE",
"149 539 OFFCURVE",
"246 624 OFFCURVE",
"302 623 CURVE"
);
},
{
closed = 1;
nodes = (
"170 628 LINE",
"170 257 LINE",
"88 218 LINE",
"88 514 LINE",
"30 541 LINE",
"121 628 LINE",
"172 628 LINE"
);
}
);
width = 561;
}
);
unicode = 0072;
},
{
glyphname = s;
lastChange = "2020-03-05 19:04:23 +0000";
layers = (
{
layerId = "4CCF3E11-34F0-4D6E-A638-D119D8A2B44F";
paths = (
{
closed = 1;
nodes = (
"278 552 LINE",
"356 554 OFFCURVE",
"464 504 OFFCURVE",
"490 473 CURVE",
"515 442 OFFCURVE",
"468 375 OFFCURVE",
"429 373 CURVE",
"384 372 OFFCURVE",
"363 484 OFFCURVE",
"239 482 CURVE",
"195 482 OFFCURVE",
"139 442 OFFCURVE",
"140 398 CURVE",
"141 332 OFFCURVE",
"140 84 OFFCURVE",
"140 84 CURVE",
"30 6 LINE",
"30 6 OFFCURVE",
"29 288 OFFCURVE",
"30 379 CURVE",
"31 479 OFFCURVE",
"197 551 OFFCURVE",
"278 552 CURVE"
);
},
{
closed = 1;
nodes = (
"326 325 LINE",
"392 324 OFFCURVE",
"501 269 OFFCURVE",
"503 197 CURVE",
"506 35 OFFCURVE",
"258 1 OFFCURVE",
"258 1 CURVE",
"258 1 OFFCURVE",
"394 102 OFFCURVE",
"392 168 CURVE",
"391 212 OFFCURVE",
"321 260 OFFCURVE",
"276 261 CURVE",
"230 262 OFFCURVE",
"117 177 OFFCURVE",
"117 177 CURVE",
"107 232 LINE",
"107 232 OFFCURVE",
"260 327 OFFCURVE",
"326 325 CURVE"
);
}
);
width = 533;
}
);
unicode = 0073;
},
{
glyphname = t;
lastChange = "2020-03-05 19:05:39 +0000";
layers = (
{
layerId = "4CCF3E11-34F0-4D6E-A638-D119D8A2B44F";
paths = (
{
closed = 1;
nodes = (
"236 646 LINE",
"318 649 OFFCURVE",
"413 599 OFFCURVE",
"413 517 CURVE",
"412 417 OFFCURVE",
"413 30 OFFCURVE",
"412 30 CURVE",
"338 1 LINE",
"338 1 OFFCURVE",
"340 372 OFFCURVE",
"338 470 CURVE",
"337 542 OFFCURVE",
"275 580 OFFCURVE",
"205 578 CURVE",
"106 576 OFFCURVE",
"30 508 OFFCURVE",
"30 508 CURVE",
"30 508 OFFCURVE",
"101 641 OFFCURVE",
"236 646 CURVE"
);
}
);
width = 443;
}
);
unicode = 0074;
},
{
glyphname = u;
lastChange = "2020-03-05 19:07:03 +0000";
layers = (
{
layerId = "4CCF3E11-34F0-4D6E-A638-D119D8A2B44F";
paths = (
{
closed = 1;
nodes = (
"488 484 LINE",
"547 484 OFFCURVE",
"643 398 OFFCURVE",
"627 329 CURVE",
"551 -6 OFFCURVE",
"320 17 OFFCURVE",
"320 17 CURVE",
"320 17 OFFCURVE",
"495 170 OFFCURVE",
"496 286 CURVE",
"496 326 OFFCURVE",
"493 379 OFFCURVE",
"416 377 CURVE",
"348 376 OFFCURVE",
"327 244 OFFCURVE",
"328 183 CURVE",
"328 109 OFFCURVE",
"328 2 OFFCURVE",
"265 1 CURVE",
"214 1 OFFCURVE",
"29 13 OFFCURVE",
"30 142 CURVE",
"31 266 OFFCURVE",
"127 327 OFFCURVE",
"144 375 CURVE",
"160 420 OFFCURVE",
"84 425 OFFCURVE",
"85 447 CURVE",
"85 471 OFFCURVE",
"134 504 OFFCURVE",
"178 504 CURVE",
"214 504 OFFCURVE",
"266 485 OFFCURVE",
"261 448 CURVE",
"248 362 OFFCURVE",
"102 287 OFFCURVE",
"106 170 CURVE",
"107 126 OFFCURVE",
"151 69 OFFCURVE",
"194 69 CURVE",
"216 69 OFFCURVE",
"235 171 OFFCURVE",
"235 225 CURVE",
"236 343 OFFCURVE",
"402 483 OFFCURVE",
"488 484 CURVE"
);
}
);
width = 659;
}
);
unicode = 0075;
},
{
glyphname = v;
lastChange = "2020-03-05 19:09:21 +0000";
layers = (
{
layerId = "4CCF3E11-34F0-4D6E-A638-D119D8A2B44F";
paths = (
{
closed = 1;
nodes = (
"482 487 LINE",
"523 487 OFFCURVE",
"612 451 OFFCURVE",
"612 396 CURVE",
"612 340 OFFCURVE",
"430 194 OFFCURVE",
"356 148 CURVE",
"297 111 OFFCURVE",
"239 97 OFFCURVE",
"199 71 CURVE",
"172 53 OFFCURVE",
"134 1 OFFCURVE",
"134 1 CURVE",
"134 1 OFFCURVE",
"110 23 OFFCURVE",
"110 34 CURVE",
"109 94 OFFCURVE",
"107 359 OFFCURVE",
"107 359 CURVE",
"30 357 LINE",
"30 357 OFFCURVE",
"136 470 OFFCURVE",
"168 471 CURVE",
"186 471 OFFCURVE",
"219 439 OFFCURVE",
"217 401 CURVE",
"216 381 OFFCURVE",
"197 361 OFFCURVE",
"197 355 CURVE",
"194 310 OFFCURVE",
"183 94 OFFCURVE",
"183 94 CURVE",
"183 94 OFFCURVE",
"288 146 OFFCURVE",
"333 182 CURVE",
"382 221 OFFCURVE",
"470 287 OFFCURVE",
"472 324 CURVE",
"476 434 OFFCURVE",
"361 416 OFFCURVE",
"361 416 CURVE",
"361 416 OFFCURVE",
"440 487 OFFCURVE",
"482 487 CURVE"
);
}
);
width = 642;
}
);
unicode = 0076;
},
{
glyphname = w;
lastChange = "2020-03-05 19:14:20 +0000";
layers = (
{
layerId = "4CCF3E11-34F0-4D6E-A638-D119D8A2B44F";
paths = (
{
closed = 1;
nodes = (
"521 427 LINE",
"559 428 OFFCURVE",
"624 354 OFFCURVE",
"623 305 CURVE",
"622 248 OFFCURVE",
"463 142 OFFCURVE",
"364 82 CURVE",
"217 -6 OFFCURVE",
"166 1 OFFCURVE",
"166 1 CURVE",
"166 1 OFFCURVE",
"259 46 OFFCURVE",
"349 105 CURVE",
"441 165 OFFCURVE",
"531 237 OFFCURVE",
"531 275 CURVE",
"530 334 OFFCURVE",
"411 319 OFFCURVE",
"411 319 CURVE",
"411 319 OFFCURVE",
"486 426 OFFCURVE",
"521 427 CURVE"
);
},
{
closed = 1;
nodes = (
"344 427 LINE",
"376 427 OFFCURVE",
"440 367 OFFCURVE",
"442 304 CURVE",
"445 196 OFFCURVE",
"328 176 OFFCURVE",
"258 128 CURVE",
"188 80 OFFCURVE",
"51 1 OFFCURVE",
"51 3 CURVE",
"71 278 LINE",
"30 336 LINE",
"30 336 OFFCURVE",
"72 337 OFFCURVE",
"87 347 CURVE",
"103 358 OFFCURVE",
"111 399 OFFCURVE",
"126 398 CURVE",
"138 398 OFFCURVE",
"158 371 OFFCURVE",
"158 356 CURVE",
"159 309 OFFCURVE",
"142 106 OFFCURVE",
"142 106 CURVE",
"142 106 OFFCURVE",
"219 142 OFFCURVE",
"256 168 CURVE",
"292 193 OFFCURVE",
"346 251 OFFCURVE",
"347 276 CURVE",
"348 322 OFFCURVE",
"253 316 OFFCURVE",
"253 316 CURVE",
"253 316 OFFCURVE",
"312 426 OFFCURVE",
"344 427 CURVE"
);
}
);
width = 653;
}
);
unicode = 0077;
},
{
glyphname = x;
lastChange = "2020-03-05 19:16:05 +0000";
layers = (
{
layerId = "4CCF3E11-34F0-4D6E-A638-D119D8A2B44F";
paths = (
{
closed = 1;
nodes = (
"160 495 LINE",
"313 494 OFFCURVE",
"383 100 OFFCURVE",
"482 98 CURVE",
"510 98 OFFCURVE",
"554 116 OFFCURVE",
"554 116 CURVE",
"534 96 OFFCURVE",
"531 5 OFFCURVE",
"446 5 CURVE",
"275 5 OFFCURVE",
"259 386 OFFCURVE",
"114 385 CURVE",
"85 384 OFFCURVE",
"31 363 OFFCURVE",
"31 363 CURVE",
"31 363 OFFCURVE",
"105 495 OFFCURVE",
"160 495 CURVE"
);
},
{
closed = 1;
nodes = (
"403 454 LINE",
"401 478 OFFCURVE",
"568 490 OFFCURVE",
"570 435 CURVE",
"573 280 OFFCURVE",
"182 230 OFFCURVE",
"179 70 CURVE",
"179 57 OFFCURVE",
"201 50 OFFCURVE",
"201 37 CURVE",
"201 -6 OFFCURVE",
"30 -9 OFFCURVE",
"30 48 CURVE",
"32 192 OFFCURVE",
"425 276 OFFCURVE",
"424 403 CURVE",
"424 448 OFFCURVE",
"405 433 OFFCURVE",
"403 454 CURVE"
);
}
);
width = 600;
}
);
unicode = 0078;
},
{
glyphname = y;
lastChange = "2020-03-05 19:17:08 +0000";
layers = (
{
layerId = "4CCF3E11-34F0-4D6E-A638-D119D8A2B44F";
paths = (
{
closed = 1;
nodes = (
"410 499 LINE",
"445 499 OFFCURVE",
"498 464 OFFCURVE",
"498 426 CURVE",
"497 332 OFFCURVE",
"335 248 OFFCURVE",
"276 190 CURVE",
"233 149 OFFCURVE",
"192 107 OFFCURVE",
"170 74 CURVE",
"158 55 OFFCURVE",
"146 8 OFFCURVE",
"128 -9 CURVE",
"107 -28 OFFCURVE",
"31 -53 OFFCURVE",
"30 -39 CURVE",
"26 4 OFFCURVE",
"99 48 OFFCURVE",
"104 93 CURVE",
"111 168 OFFCURVE",
"124 342 OFFCURVE",
"128 399 CURVE",
"129 412 OFFCURVE",
"81 403 OFFCURVE",
"88 415 CURVE",
"99 438 OFFCURVE",
"174 498 OFFCURVE",
"199 499 CURVE",
"233 500 OFFCURVE",
"236 465 OFFCURVE",
"234 421 CURVE",
"228 327 OFFCURVE",
"201 171 OFFCURVE",
"201 171 CURVE",
"201 171 OFFCURVE",
"364 314 OFFCURVE",
"366 372 CURVE",
"367 397 OFFCURVE",
"359 424 OFFCURVE",
"345 424 CURVE",
"332 425 OFFCURVE",
"289 396 OFFCURVE",
"289 413 CURVE",
"290 461 OFFCURVE",
"376 498 OFFCURVE",
"410 499 CURVE"
);
}
);
width = 528;
}
);
unicode = 0079;
},
{
glyphname = z;
lastChange = "2020-03-05 19:19:26 +0000";
layers = (
{
layerId = "4CCF3E11-34F0-4D6E-A638-D119D8A2B44F";
paths = (
{
closed = 1;
nodes = (
"-58 25 OFFCURVE",
"92 233 OFFCURVE",
"190 292 CURVE SMOOTH",
"250 328 OFFCURVE",
"409 346 OFFCURVE",
"409 346 CURVE",
"487 424 LINE",
"176 424 LINE",
"176 424 OFFCURVE",
"273 517 OFFCURVE",
"302 519 CURVE SMOOTH",
"318 520 OFFCURVE",
"328 499 OFFCURVE",
"340 499 CURVE SMOOTH",
"389 499 OFFCURVE",
"593 499 OFFCURVE",
"592 499 CURVE",
"593 440 LINE",
"453 312 LINE",
"453 312 OFFCURVE",
"438 161 OFFCURVE",
"442 129 CURVE SMOOTH",
"446 100 OFFCURVE",
"562 142 OFFCURVE",
"562 142 CURVE",
"562 142 OFFCURVE",
"400 12 OFFCURVE",
"334 1 CURVE SMOOTH",
"258 -12 OFFCURVE",
"335 213 OFFCURVE",
"335 213 CURVE",
"335 213 OFFCURVE",
"137 15 OFFCURVE",
"97 17 CURVE SMOOTH"
);
},
{
closed = 1;
nodes = (
"159 91 OFFCURVE",
"293 247 OFFCURVE",
"293 247 CURVE",
"293 247 OFFCURVE",
"282 280 OFFCURVE",
"224 265 CURVE SMOOTH",
"196 258 OFFCURVE",
"103 139 OFFCURVE",
"126 119 CURVE SMOOTH"
);
}
);
width = 623;
}
);
unicode = 007A;
},
{
glyphname = zero;
lastChange = "2020-03-07 16:57:45 +0000";
layers = (
{
layerId = "4CCF3E11-34F0-4D6E-A638-D119D8A2B44F";
paths = (
{
closed = 1;
nodes = (
"30 360 OFFCURVE",
"144 574 OFFCURVE",
"292 574 CURVE SMOOTH",
"390 574 OFFCURVE",
"495 445 OFFCURVE",
"495 300 CURVE SMOOTH",
"495 77 OFFCURVE",
"322 1 OFFCURVE",
"244 1 CURVE SMOOTH",
"148 1 OFFCURVE",
"30 72 OFFCURVE",
"30 264 CURVE SMOOTH"
);
},
{
closed = 1;
nodes = (
"95 228 OFFCURVE",
"113 179 OFFCURVE",
"145 140 CURVE",
"167 165 OFFCURVE",
"208 212 OFFCURVE",
"221 231 CURVE SMOOTH",
"229 243 OFFCURVE",
"228 276 OFFCURVE",
"237 288 CURVE SMOOTH",
"246 300 OFFCURVE",
"293 304 OFFCURVE",
"303 294 CURVE SMOOTH",
"312 285 OFFCURVE",
"308 252 OFFCURVE",
"295 237 CURVE SMOOTH",
"275 213 OFFCURVE",
"193 147 OFFCURVE",
"162 122 CURVE",
"195 90 OFFCURVE",
"239 69 OFFCURVE",
"290 67 CURVE SMOOTH",
"343 65 OFFCURVE",
"423 54 OFFCURVE",
"425 228 CURVE SMOOTH",
"427 378 OFFCURVE",
"321 487 OFFCURVE",
"216 487 CURVE SMOOTH",
"116 487 OFFCURVE",
"95 408 OFFCURVE",
"95 275 CURVE SMOOTH"
);
}
);
width = 525;
}
);
unicode = 0030;
},
{
glyphname = one;
lastChange = "2020-03-06 19:49:30 +0000";
layers = (
{
layerId = "4CCF3E11-34F0-4D6E-A638-D119D8A2B44F";
paths = (
{
closed = 1;
nodes = (
"295 555 LINE",
"392 556 OFFCURVE",
"484 493 OFFCURVE",
"506 464 CURVE",
"523 442 OFFCURVE",
"481 403 OFFCURVE",
"447 403 CURVE",
"409 402 OFFCURVE",
"392 527 OFFCURVE",
"291 527 CURVE",
"253 527 OFFCURVE",
"212 489 OFFCURVE",
"210 430 CURVE",
"209 359 OFFCURVE",
"211 206 OFFCURVE",
"211 130 CURVE",
"210 29 OFFCURVE",
"30 1 OFFCURVE",
"30 1 CURVE",
"30 1 OFFCURVE",
"120 47 OFFCURVE",
"120 83 CURVE",
"119 156 OFFCURVE",
"117 309 OFFCURVE",
"118 393 CURVE",
"120 469 OFFCURVE",
"190 554 OFFCURVE",
"295 555 CURVE"
);
}
);
width = 540;
}
);
unicode = 0031;
},
{
glyphname = two;
lastChange = "2020-03-06 19:51:39 +0000";
layers = (
{
layerId = "4CCF3E11-34F0-4D6E-A638-D119D8A2B44F";
paths = (
{
closed = 1;
nodes = (
"251 597 LINE",
"348 598 OFFCURVE",
"440 534 OFFCURVE",
"462 506 CURVE",
"479 483 OFFCURVE",
"437 445 OFFCURVE",
"403 444 CURVE",
"365 444 OFFCURVE",
"348 568 OFFCURVE",
"248 568 CURVE",
"209 568 OFFCURVE",
"168 531 OFFCURVE",
"167 471 CURVE",
"165 400 OFFCURVE",
"167 248 OFFCURVE",
"167 172 CURVE",
"167 71 OFFCURVE",
"30 1 OFFCURVE",
"30 1 CURVE",
"30 1 OFFCURVE",
"76 89 OFFCURVE",
"76 124 CURVE",
"75 198 OFFCURVE",
"73 350 OFFCURVE",
"75 434 CURVE",
"77 511 OFFCURVE",
"146 595 OFFCURVE",
"251 597 CURVE"
);
},
{
closed = 1;
nodes = (
"283 384 LINE",
"299 395 OFFCURVE",
"337 398 OFFCURVE",
"339 383 CURVE",
"341 362 OFFCURVE",
"301 323 OFFCURVE",
"269 295 CURVE",
"212 248 OFFCURVE",
"140 262 OFFCURVE",
"140 262 CURVE",
"140 262 OFFCURVE",
"200 293 OFFCURVE",
"231 320 CURVE",
"259 344 OFFCURVE",
"266 372 OFFCURVE",
"283 384 CURVE"
);
}
);
width = 496;
}
);
unicode = 0032;
},
{
glyphname = three;
lastChange = "2020-03-06 19:53:13 +0000";
layers = (
{
layerId = "4CCF3E11-34F0-4D6E-A638-D119D8A2B44F";
paths = (
{
closed = 1;
nodes = (
"333 617 LINE",
"430 618 OFFCURVE",
"521 555 OFFCURVE",
"543 526 CURVE",
"561 504 OFFCURVE",
"518 465 OFFCURVE",
"485 465 CURVE",
"446 464 OFFCURVE",
"429 589 OFFCURVE",
"329 589 CURVE",
"291 589 OFFCURVE",
"250 551 OFFCURVE",
"248 492 CURVE",
"247 421 OFFCURVE",
"249 268 OFFCURVE",
"248 192 CURVE",
"248 45 OFFCURVE",
"30 1 OFFCURVE",
"30 1 CURVE",
"30 1 OFFCURVE",
"158 109 OFFCURVE",
"157 145 CURVE",
"156 218 OFFCURVE",
"154 371 OFFCURVE",
"156 455 CURVE",
"158 531 OFFCURVE",
"228 616 OFFCURVE",
"333 617 CURVE"
);
},
{
closed = 1;
nodes = (
"365 405 LINE",
"380 416 OFFCURVE",
"418 419 OFFCURVE",
"420 403 CURVE",
"422 383 OFFCURVE",
"383 343 OFFCURVE",
"350 316 CURVE",
"294 269 OFFCURVE",
"221 283 OFFCURVE",
"221 283 CURVE",
"221 283 OFFCURVE",
"281 313 OFFCURVE",
"312 340 CURVE",
"340 365 OFFCURVE",
"347 393 OFFCURVE",
"365 405 CURVE"
);
},
{
closed = 1;
nodes = (
"368 247 LINE",
"384 257 OFFCURVE",
"422 260 OFFCURVE",
"424 245 CURVE",
"426 224 OFFCURVE",
"387 185 OFFCURVE",
"354 158 CURVE",
"298 110 OFFCURVE",
"212 122 OFFCURVE",
"212 122 CURVE",
"212 122 OFFCURVE",
"285 155 OFFCURVE",
"316 182 CURVE",
"344 206 OFFCURVE",
"351 234 OFFCURVE",
"368 247 CURVE"
);
}
);
width = 577;
}
);
unicode = 0033;
},
{
glyphname = four;
lastChange = "2020-03-07 16:59:44 +0000";
layers = (
{
layerId = "4CCF3E11-34F0-4D6E-A638-D119D8A2B44F";
paths = (
{
closed = 1;
nodes = (
"209 577 LINE",
"240 577 OFFCURVE",
"267 553 OFFCURVE",
"283 528 CURVE",
"337 441 OFFCURVE",
"558 117 OFFCURVE",
"543 69 CURVE",
"533 37 OFFCURVE",
"485 1 OFFCURVE",
"455 1 CURVE",
"381 0 OFFCURVE",
"68 3 OFFCURVE",
"68 2 CURVE",
"110 55 LINE",
"458 55 LINE",
"458 55 OFFCURVE",
"460 85 OFFCURVE",
"454 96 CURVE",
"416 163 OFFCURVE",
"277 390 OFFCURVE",
"233 462 CURVE",
"219 485 OFFCURVE",
"183 508 OFFCURVE",
"161 509 CURVE",
"136 510 OFFCURVE",
"101 467 OFFCURVE",
"100 438 CURVE",
"99 411 OFFCURVE",
"125 373 OFFCURVE",
"124 347 CURVE",
"123 321 OFFCURVE",
"86 280 OFFCURVE",
"70 280 CURVE",
"54 280 OFFCURVE",
"30 327 OFFCURVE",
"30 381 CURVE",
"30 441 OFFCURVE",
"158 578 OFFCURVE",
"209 577 CURVE"
);
}
);
width = 574;
}
);
unicode = 0034;
},
{
glyphname = five;
lastChange = "2020-03-07 17:04:32 +0000";
layers = (
{
layerId = "4CCF3E11-34F0-4D6E-A638-D119D8A2B44F";
paths = (
{
closed = 1;
nodes = (
"248 567 LINE",
"302 568 OFFCURVE",
"404 506 OFFCURVE",
"403 435 CURVE",
"403 344 OFFCURVE",
"403 151 OFFCURVE",
"403 77 CURVE",
"404 41 OFFCURVE",
"500 1 OFFCURVE",
"500 1 CURVE",
"500 1 OFFCURVE",
"311 19 OFFCURVE",
"312 89 CURVE",
"312 166 OFFCURVE",
"312 352 OFFCURVE",
"312 424 CURVE",
"312 469 OFFCURVE",
"241 501 OFFCURVE",
"200 503 CURVE",
"160 505 OFFCURVE",
"77 475 OFFCURVE",
"77 475 CURVE",
"77 475 OFFCURVE",
"194 566 OFFCURVE",
"248 567 CURVE"
);
},
{
closed = 1;
nodes = (
"31 56 LINE",
"43 92 OFFCURVE",
"104 164 OFFCURVE",
"156 207 CURVE",
"207 250 OFFCURVE",
"349 323 OFFCURVE",
"349 323 CURVE",
"349 323 OFFCURVE",
"224 202 OFFCURVE",
"190 162 CURVE",
"170 139 OFFCURVE",
"142 103 OFFCURVE",
"141 84 CURVE",
"140 65 OFFCURVE",
"183 54 OFFCURVE",
"184 41 CURVE",
"185 25 OFFCURVE",
"126 15 OFFCURVE",
"101 15 CURVE",
"75 14 OFFCURVE",
"22 30 OFFCURVE",
"31 56 CURVE"
);
}
);
width = 530;
}
);
unicode = 0035;
},
{
glyphname = six;
lastChange = "2020-03-07 17:05:35 +0000";
layers = (
{
layerId = "4CCF3E11-34F0-4D6E-A638-D119D8A2B44F";
paths = (
{
closed = 1;
nodes = (
"443 585 LINE",
"519 584 OFFCURVE",
"575 513 OFFCURVE",
"576 467 CURVE",
"578 420 OFFCURVE",
"513 331 OFFCURVE",
"499 360 CURVE",
"486 387 OFFCURVE",
"526 518 OFFCURVE",
"399 517 CURVE",
"364 517 OFFCURVE",
"334 485 OFFCURVE",
"317 455 CURVE",
"274 383 OFFCURVE",
"149 177 OFFCURVE",
"115 112 CURVE",
"107 98 OFFCURVE",
"106 58 OFFCURVE",
"106 57 CURVE",
"532 58 LINE",
"494 1 LINE",
"30 1 LINE",
"69 41 LINE",
"69 41 OFFCURVE",
"69 95 OFFCURVE",
"79 112 CURVE",
"124 188 OFFCURVE",
"256 411 OFFCURVE",
"306 495 CURVE",
"336 545 OFFCURVE",
"390 585 OFFCURVE",
"443 585 CURVE"
);
}
);
width = 606;
}
);
unicode = 0036;
},
{
glyphname = seven;
lastChange = "2020-03-07 17:08:25 +0000";
layers = (
{
layerId = "4CCF3E11-34F0-4D6E-A638-D119D8A2B44F";
paths = (
{
closed = 1;
nodes = (
"154 626 LINE",
"233 626 OFFCURVE",
"311 595 OFFCURVE",
"311 502 CURVE",
"315 407 OFFCURVE",
"311 60 OFFCURVE",
"304 60 CURVE",
"226 23 LINE",
"226 23 OFFCURVE",
"226 406 OFFCURVE",
"226 501 CURVE",
"226 561 OFFCURVE",
"182 592 OFFCURVE",
"130 593 CURVE",
"101 594 OFFCURVE",
"30 571 OFFCURVE",
"30 571 CURVE",
"30 571 OFFCURVE",
"114 626 OFFCURVE",
"154 626 CURVE"
);
},
{
closed = 1;
nodes = (
"454 297 LINE",
"527 297 OFFCURVE",
"600 207 OFFCURVE",
"596 159 CURVE",
"591 92 OFFCURVE",
"491 3 OFFCURVE",
"434 1 CURVE",
"381 1 OFFCURVE",
"286 79 OFFCURVE",
"286 79 CURVE",
"290 162 LINE",
"290 162 OFFCURVE",
"405 52 OFFCURVE",
"441 52 CURVE",
"472 52 OFFCURVE",
"502 47 OFFCURVE",
"504 128 CURVE",
"506 178 OFFCURVE",
"464 242 OFFCURVE",
"413 242 CURVE",
"378 243 OFFCURVE",
"303 180 OFFCURVE",
"303 180 CURVE",
"291 217 LINE",
"291 217 OFFCURVE",
"370 298 OFFCURVE",
"454 297 CURVE"
);
}
);
width = 626;
}
);
unicode = 0037;
},
{
glyphname = eight;
lastChange = "2020-03-07 17:07:50 +0000";
layers = (
{
layerId = "4CCF3E11-34F0-4D6E-A638-D119D8A2B44F";
paths = (
{
closed = 1;
nodes = (
"150 467 LINE",
"176 466 OFFCURVE",
"240 443 OFFCURVE",
"258 420 CURVE",
"270 406 OFFCURVE",
"255 384 OFFCURVE",
"255 384 CURVE",
"255 384 OFFCURVE",
"183 437 OFFCURVE",
"147 438 CURVE",
"109 438 OFFCURVE",
"30 409 OFFCURVE",
"30 409 CURVE",
"30 409 OFFCURVE",
"112 467 OFFCURVE",
"150 467 CURVE"
);
},
{
closed = 1;
nodes = (
"167 626 LINE",
"246 626 OFFCURVE",
"324 595 OFFCURVE",
"324 502 CURVE",
"328 407 OFFCURVE",
"324 60 OFFCURVE",
"317 60 CURVE",
"239 23 LINE",
"239 23 OFFCURVE",
"239 406 OFFCURVE",
"239 501 CURVE",
"239 561 OFFCURVE",
"195 592 OFFCURVE",
"143 593 CURVE",
"114 594 OFFCURVE",
"43 571 OFFCURVE",
"43 571 CURVE",
"43 571 OFFCURVE",
"127 626 OFFCURVE",
"167 626 CURVE"
);
},
{
closed = 1;
nodes = (
"467 297 LINE",
"540 297 OFFCURVE",
"613 207 OFFCURVE",
"609 159 CURVE",
"604 92 OFFCURVE",
"504 3 OFFCURVE",
"447 1 CURVE",
"394 1 OFFCURVE",
"299 79 OFFCURVE",
"299 79 CURVE",
"303 162 LINE",
"303 162 OFFCURVE",
"418 52 OFFCURVE",
"454 52 CURVE",
"485 52 OFFCURVE",
"515 47 OFFCURVE",
"517 128 CURVE",
"519 178 OFFCURVE",
"477 242 OFFCURVE",
"426 242 CURVE",
"391 243 OFFCURVE",
"316 180 OFFCURVE",
"316 180 CURVE",
"304 217 LINE",
"304 217 OFFCURVE",
"383 298 OFFCURVE",
"467 297 CURVE"
);
}
);
width = 639;
}
);
unicode = 0038;
},
{
glyphname = nine;
lastChange = "2020-03-07 17:07:12 +0000";
layers = (
{
layerId = "4CCF3E11-34F0-4D6E-A638-D119D8A2B44F";
paths = (
{
closed = 1;
nodes = (
"155 467 LINE",
"181 466 OFFCURVE",
"245 443 OFFCURVE",
"263 420 CURVE",
"275 406 OFFCURVE",
"260 384 OFFCURVE",
"260 384 CURVE",
"260 384 OFFCURVE",
"188 437 OFFCURVE",
"152 438 CURVE",
"114 438 OFFCURVE",
"35 409 OFFCURVE",
"35 409 CURVE",
"35 409 OFFCURVE",
"117 467 OFFCURVE",
"155 467 CURVE"
);
},
{
closed = 1;
nodes = (
"150 322 LINE",
"177 322 OFFCURVE",
"240 298 OFFCURVE",
"259 275 CURVE",
"270 262 OFFCURVE",
"256 240 OFFCURVE",
"256 240 CURVE",
"256 240 OFFCURVE",
"184 293 OFFCURVE",
"148 293 CURVE",
"109 294 OFFCURVE",
"30 265 OFFCURVE",
"30 265 CURVE",
"30 265 OFFCURVE",
"112 322 OFFCURVE",
"150 322 CURVE"
);
},
{
closed = 1;
nodes = (
"172 626 LINE",
"251 626 OFFCURVE",
"329 595 OFFCURVE",
"329 502 CURVE",
"333 407 OFFCURVE",
"329 60 OFFCURVE",
"322 60 CURVE",
"244 23 LINE",
"244 23 OFFCURVE",
"244 406 OFFCURVE",
"244 501 CURVE",
"244 561 OFFCURVE",
"200 592 OFFCURVE",
"148 593 CURVE",
"119 594 OFFCURVE",
"48 571 OFFCURVE",
"48 571 CURVE",
"48 571 OFFCURVE",
"132 626 OFFCURVE",
"172 626 CURVE"
);
},
{
closed = 1;
nodes = (
"472 297 LINE",
"545 297 OFFCURVE",
"618 207 OFFCURVE",
"614 159 CURVE",
"609 92 OFFCURVE",
"509 3 OFFCURVE",
"452 1 CURVE",
"399 1 OFFCURVE",
"304 79 OFFCURVE",
"304 79 CURVE",
"308 162 LINE",
"308 162 OFFCURVE",
"423 52 OFFCURVE",
"459 52 CURVE",
"490 52 OFFCURVE",
"520 47 OFFCURVE",
"522 128 CURVE",
"524 178 OFFCURVE",
"482 242 OFFCURVE",
"431 242 CURVE",
"396 243 OFFCURVE",
"321 180 OFFCURVE",
"321 180 CURVE",
"309 217 LINE",
"309 217 OFFCURVE",
"388 298 OFFCURVE",
"472 297 CURVE"
);
}
);
width = 644;
}
);
unicode = 0039;
},
{
glyphname = period;
lastChange = "2020-03-06 19:32:45 +0000";
layers = (
{
layerId = "4CCF3E11-34F0-4D6E-A638-D119D8A2B44F";
paths = (
{
closed = 1;
nodes = (
"30 84 OFFCURVE",
"54 108 OFFCURVE",
"84 108 CURVE SMOOTH",
"114 108 OFFCURVE",
"138 84 OFFCURVE",
"138 55 CURVE SMOOTH",
"138 25 OFFCURVE",
"114 1 OFFCURVE",
"84 1 CURVE SMOOTH",
"54 1 OFFCURVE",
"30 25 OFFCURVE",
"30 55 CURVE SMOOTH"
);
},
{
closed = 1;
nodes = (
"65 45 OFFCURVE",
"73 36 OFFCURVE",
"83 36 CURVE SMOOTH",
"94 36 OFFCURVE",
"102 45 OFFCURVE",
"102 55 CURVE SMOOTH",
"102 66 OFFCURVE",
"94 74 OFFCURVE",
"83 74 CURVE SMOOTH",
"73 74 OFFCURVE",
"65 66 OFFCURVE",
"65 55 CURVE SMOOTH"
);
}
);
width = 168;
}
);
unicode = 002E;
},
{
glyphname = comma;
lastChange = "2020-03-06 19:31:33 +0000";
layers = (
{
layerId = "4CCF3E11-34F0-4D6E-A638-D119D8A2B44F";
paths = (
{
closed = 1;
nodes = (
"59 81 LINE",
"112 81 LINE",
"112 31 LINE",
"59 31 LINE"
);
},
{
closed = 1;
nodes = (
"84 108 LINE",
"114 108 OFFCURVE",
"138 84 OFFCURVE",
"138 55 CURVE",
"138 25 OFFCURVE",
"114 1 OFFCURVE",
"84 1 CURVE",
"54 1 OFFCURVE",
"30 25 OFFCURVE",
"30 55 CURVE",
"30 84 OFFCURVE",
"54 108 OFFCURVE",
"84 108 CURVE"
);
},
{
closed = 1;
nodes = (
"83 74 LINE",
"94 74 OFFCURVE",
"102 66 OFFCURVE",
"102 55 CURVE",
"102 45 OFFCURVE",
"94 36 OFFCURVE",
"83 36 CURVE",
"73 36 OFFCURVE",
"65 45 OFFCURVE",
"65 55 CURVE",
"65 66 OFFCURVE",
"73 74 OFFCURVE",
"83 74 CURVE"
);
}
);
width = 168;
}
);
unicode = 002C;
},
{
glyphname = hyphen;
lastChange = "2020-03-06 19:33:30 +0000";
layers = (
{
layerId = "4CCF3E11-34F0-4D6E-A638-D119D8A2B44F";
paths = (
{
closed = 1;
nodes = (
"30 298 LINE",
"402 298 LINE",
"402 243 LINE",
"30 243 LINE"
);
}
);
width = 432;
}
);
unicode = 002D;
},
